<svg xmlns="http://www.w3.org/2000/svg" version="1.1" xmlns:xlink="http://www.w3.org/1999/xlink" xmlns:svgjs="http://svgjs.com/svgjs" width="512" height="512" x="0" y="0" viewBox="0 0 512.00088 512" style="enable-background:new 0 0 512 512" xml:space="preserve" class=""><g transform="matrix(-1.8369701987210297e-16,-1,1,-1.8369701987210297e-16,0.0009765625,512.0000000000001)"><path xmlns="http://www.w3.org/2000/svg" d="m147.292969 322.28125-131.941407 174.367188c20.472657 20.46875 53.777344 20.46875 74.246094 0l94.820313-94.820313zm0 0" fill="#000000" data-original="#000000" class=""></path><path xmlns="http://www.w3.org/2000/svg" d="m110.171875 327.582031-94.820313 94.820313c-20.46875 20.46875-20.46875 53.777344 0 74.246094l153.15625-153.152344zm0 0" fill="#242424" data-original="#242424" class=""></path><path xmlns="http://www.w3.org/2000/svg" d="m184.417969 401.828125 55.792969-55.792969-58.335938-58.335937-34.582031 77.007812zm0 0" fill="#828282" data-original="#828282" class=""></path><path xmlns="http://www.w3.org/2000/svg" d="m165.964844 271.785156 37.125 37.125-55.792969 55.792969-37.125-37.125zm0 0" fill="#c0c0c0" data-original="#c0c0c0" class=""></path><path xmlns="http://www.w3.org/2000/svg" d="m454.886719 57.113281-168.300781 107.472657-107.472657 168.300781c76.152344 76.152343 199.621094 76.152343 275.773438 0 76.152343-76.152344 76.152343-199.621094 0-275.773438zm0 0" fill="#565656" data-original="#434343" class=""></path><path xmlns="http://www.w3.org/2000/svg" d="m179.113281 57.113281c-76.152343 76.152344-76.152343 199.621094 0 275.773438l275.773438-275.773438c-76.152344-76.152343-199.621094-76.152343-275.773438 0zm0 0" fill="#828282" data-original="#828282" class=""></path><path xmlns="http://www.w3.org/2000/svg" d="m412.460938 99.542969-116.519532 74.402343-74.402344 116.515626c52.722657 52.71875 138.199219 52.71875 190.921876 0 52.71875-52.722657 52.71875-138.199219 0-190.917969zm0 0" fill="#b2f5ff" data-original="#b2f5ff" class=""></path><path xmlns="http://www.w3.org/2000/svg" d="m221.542969 99.542969c-52.722657 52.71875-52.722657 138.195312 0 190.917969l190.917969-190.917969c-52.722657-52.722657-138.199219-52.722657-190.917969 0zm0 0" fill="#d6faff" data-original="#ffffff" class=""></path></g></svg>