<svg xmlns="http://www.w3.org/2000/svg" version="1.1" xmlns:xlink="http://www.w3.org/1999/xlink" xmlns:svgjs="http://svgjs.com/svgjs" width="512" height="512" x="0" y="0" viewBox="0 0 512 512" style="enable-background:new 0 0 512 512" xml:space="preserve" class=""><g><path xmlns="http://www.w3.org/2000/svg" d="m121 272v-45h-30v45h-30v30h90v-30zm0 0" fill="#61729b" data-original="#61729b" class=""></path><path xmlns="http://www.w3.org/2000/svg" d="m512 452h-91v-120h91zm0 0" fill="#47568c" data-original="#47568c"></path><path xmlns="http://www.w3.org/2000/svg" d="m91 0h30v47h-30zm0 0" fill="#61729b" data-original="#61729b" class=""></path><path xmlns="http://www.w3.org/2000/svg" d="m211 0h30v47h-30zm0 0" fill="#61729b" data-original="#61729b" class=""></path><path xmlns="http://www.w3.org/2000/svg" d="m331 0h30v47h-30zm0 0" fill="#61729b" data-original="#61729b" class=""></path><path xmlns="http://www.w3.org/2000/svg" d="m451 0h30v47h-30zm0 0" fill="#47568c" data-original="#47568c"></path><path xmlns="http://www.w3.org/2000/svg" d="m346 0h15v47h-15zm0 0" fill="#47568c" data-original="#47568c"></path><path xmlns="http://www.w3.org/2000/svg" d="m61 32h90v75h-90zm0 0" fill="#61d7a8" data-original="#61d7a8"></path><path xmlns="http://www.w3.org/2000/svg" d="m181 32h90v75h-90zm0 0" fill="#ff7cb9" data-original="#ff7cb9"></path><path xmlns="http://www.w3.org/2000/svg" d="m301 32h90v75h-90zm0 0" fill="#25d9f8" data-original="#25d9f8"></path><path xmlns="http://www.w3.org/2000/svg" d="m512 182h-91v-150h91zm0 0" fill="#ffda2d" data-original="#ffda2d"></path><path xmlns="http://www.w3.org/2000/svg" d="m406 92h-45v30h-30v-30h-30v30h-30v-30h-30v30h-30v-30h-30v30h-30v-30h-30v30h-30v-30h-15c-24.902344 0-45 20.097656-45 45v105h210v90h-196c-24.902344 0-45 20.097656-45 45v135h451v-375c0-24.902344-20.097656-45-45-45zm0 0" fill="#ccecfd" data-original="#e0f4ff" class=""></path><path xmlns="http://www.w3.org/2000/svg" d="m346 32h45v75h-45zm0 0" fill="#00c0f1" data-original="#00c0f1" class=""></path><g xmlns="http://www.w3.org/2000/svg" fill="#bbdcff"><path d="m451 137v375h-105v-390h15v-30h45c24.902344 0 45 20.097656 45 45zm0 0" fill="#aed6ff" data-original="#bbdcff" class=""></path><path d="m151 92h30v90h-30zm0 0" fill="#aed6ff" data-original="#bbdcff" class=""></path><path d="m91 92h30v90h-30zm0 0" fill="#aed6ff" data-original="#bbdcff" class=""></path><path d="m211 92h30v90h-30zm0 0" fill="#aed6ff" data-original="#bbdcff" class=""></path><path d="m271 92h30v90h-30zm0 0" fill="#aed6ff" data-original="#bbdcff" class=""></path><path d="m346 362c-24.902344 0-45 20.097656-45 45 0 24.898438 20.097656 45 45 45s45-20.101562 45-45c0-24.902344-20.097656-45-45-45zm0 0" fill="#aed6ff" data-original="#bbdcff" class=""></path><path d="m346 242c-24.902344 0-45 20.097656-45 45 0 24.898438 20.097656 45 45 45s45-20.101562 45-45c0-24.902344-20.097656-45-45-45zm0 0" fill="#aed6ff" data-original="#bbdcff" class=""></path><path d="m61 392h150v30h-150zm0 0" fill="#aed6ff" data-original="#bbdcff" class=""></path></g><path xmlns="http://www.w3.org/2000/svg" d="m391 407c0 24.898438-20.097656 45-45 45v-90c24.902344 0 45 20.097656 45 45zm0 0" fill="#8eb5de" data-original="#9abadb" class=""></path><path xmlns="http://www.w3.org/2000/svg" d="m391 287c0 24.898438-20.097656 45-45 45v-90c24.902344 0 45 20.097656 45 45zm0 0" fill="#8eb5de" data-original="#9abadb" class=""></path><path xmlns="http://www.w3.org/2000/svg" d="m331 92h30v90h-30zm0 0" fill="#aed6ff" data-original="#bbdcff" class=""></path><path xmlns="http://www.w3.org/2000/svg" d="m346 92h15v90h-15zm0 0" fill="#8eb5de" data-original="#9abadb" class=""></path></g></svg>