<?xml version="1.0" encoding="UTF-8"?>
<svg width="700pt" height="700pt" version="1.1" viewBox="0 0 700 700" xmlns="http://www.w3.org/2000/svg">
 <g>
  <path d="m198.49 106.25v422.96c0 5.2891 2.6445 10.109 7.1562 13.066 4.3555 2.8008 9.957 3.2656 14.777 1.2461l129.58-57.555 129.58 57.555c2.0234 0.93359 4.1992 1.3984 6.3789 1.3984 2.957 0 5.9102-0.77734 8.3984-2.4883 4.3555-2.8008 7.1562-7.7773 7.1562-13.066v-423.11c0-4.668-2.0234-9.0234-5.6016-11.977l-90.688-75.602c-2.8008-2.332-6.3789-3.5781-9.957-3.5781h-90.688c-3.5781 0-7.1562 1.2461-9.957 3.5781l-90.531 75.598c-3.5781 2.957-5.6016 7.4688-5.6016 11.98zm31.113 7.3086 80.734-67.199h30.801c-21 4.1992-36.867 22.711-36.867 44.801 0 25.199 20.535 45.734 45.734 45.734 25.199 0 45.734-20.535 45.734-45.734 0-22.246-15.867-40.754-36.867-44.801h30.801l80.734 67.199v391.69l-114.02-50.711c-2.0234-0.93359-4.1992-1.3984-6.3789-1.3984-2.1797 0-4.3555 0.46484-6.3789 1.3984l-114.02 50.711zm120.4-37.02c8.0898 0 14.621 6.5352 14.621 14.621 0 8.0898-6.5312 14.621-14.621 14.621s-14.621-6.5352-14.621-14.621c0-8.0898 6.5312-14.621 14.621-14.621z"/>
  <path d="m365.55 432.13v-15.398c33.91-4.043 60.355-32.668 60.355-67.668 0-37.801-30.645-68.445-68.445-68.445h-15.09c-20.535 0-37.332-16.801-37.332-37.332 0-20.535 16.801-37.332 37.332-37.332h22.711c16.332 0 29.711 13.379 29.711 29.711 0 8.5547 7 15.555 15.555 15.555 8.5547 0 15.555-7 15.555-15.555 0-33.445-27.066-60.668-60.355-60.82l0.003907-14.625c0-8.5547-7-15.555-15.555-15.555s-15.555 7-15.555 15.555v15.398c-33.91 4.043-60.355 32.668-60.355 67.668 0 37.801 30.645 68.445 68.445 68.445h15.09c20.535 0 37.332 16.801 37.332 37.332 0 20.535-16.801 37.332-37.332 37.332h-22.711c-16.332 0-29.711-13.379-29.711-29.711 0-8.5547-7-15.555-15.555-15.555-8.5547 0-15.555 7-15.555 15.555 0 33.445 27.066 60.512 60.355 60.82v14.777c0 8.5547 7 15.555 15.555 15.555 8.5508 0.003906 15.551-7.1523 15.551-15.707z"/>
 </g>
</svg>
