<svg id="Layer_1" data-name="Layer 1" xmlns="http://www.w3.org/2000/svg" viewBox="0 0 1109.35 682.39"><defs><style>.cls-1{font-size:18px;}.cls-1,.cls-2,.cls-3,.cls-5,.cls-8{fill:#fff;}.cls-1,.cls-2,.cls-3,.cls-8{font-family:Helvetica;}.cls-2{font-size:14.26px;}.cls-3{font-size:13.25px;}.cls-4{fill:#ef4538;}.cls-6{fill:#63bf77;}.cls-7{fill:#ffce31;}.cls-8{font-size:8.45px;}</style></defs><text class="cls-1" transform="translate(196.01 70.48)">Shein</text><text class="cls-1" transform="translate(344.75 70.48)">H&amp;M</text><text class="cls-1" transform="translate(495.5 70.48)">Zara</text><text class="cls-1" transform="translate(624.11 69.69)">Levis</text><text class="cls-2" transform="translate(109.34 123.69)">1</text><text class="cls-3" transform="translate(109.34 175.39)">2</text><text class="cls-3" transform="translate(109.34 228.2)">3</text><text class="cls-3" transform="translate(109.34 279.49)">4</text><text class="cls-3" transform="translate(109.34 334.18)">5</text><text class="cls-3" transform="translate(109.34 385.21)">6</text><path class="cls-4" d="M232.83,182.79v.72a2.24,2.24,0,0,1-.86,1.61c-.27.25-.52.51-.77.77a1.79,1.79,0,0,1-1.18.57H228.9a2.12,2.12,0,0,1-1.38-.77l-7.35-7.35c-.06-.07-.13-.13-.2-.2a.23.23,0,0,0-.39,0l-.2.2L212,185.69a2.12,2.12,0,0,1-1.38.77h-1.12a2,2,0,0,1-1.38-.77,9.94,9.94,0,0,0-.8-.79,2,2,0,0,1-.62-1.34v-.77a2.28,2.28,0,0,1,.85-1.62c2.45-2.43,4.88-4.87,7.32-7.31l.2-.2a.24.24,0,0,0,0-.39l-.2-.2c-2.44-2.44-4.87-4.89-7.32-7.32a2.28,2.28,0,0,1-.85-1.62v-.76a2.26,2.26,0,0,1,.88-1.6,6.24,6.24,0,0,0,.63-.63,2.39,2.39,0,0,1,2.13-.75,2.3,2.3,0,0,1,1.58.75q3.7,3.74,7.44,7.45l.1.11c.26.25.31.25.57,0l5.53-5.53c.68-.68,1.38-1.34,2-2a2.54,2.54,0,0,1,2.14-.73,2.17,2.17,0,0,1,1.55.75c.3.32.61.62.92.92a1.77,1.77,0,0,1,.57,1.29s0,.09,0,.12v.71a2.51,2.51,0,0,1-.89,1.61c-2.45,2.42-4.88,4.87-7.31,7.3l-.2.2a.22.22,0,0,0,0,.34l.21.22c2.45,2.44,4.88,4.89,7.34,7.32A2.36,2.36,0,0,1,232.83,182.79Z"/><path class="cls-4" d="M376,182v.72a2.19,2.19,0,0,1-.85,1.61c-.27.25-.53.51-.77.77a1.79,1.79,0,0,1-1.18.57H372a2.2,2.2,0,0,1-1.39-.76q-3.66-3.69-7.34-7.36l-.2-.2a.23.23,0,0,0-.39,0l-.2.2-7.35,7.35a2.12,2.12,0,0,1-1.38.77h-1.12a2,2,0,0,1-1.39-.77,9.81,9.81,0,0,0-.79-.79,2,2,0,0,1-.63-1.34V182a2.36,2.36,0,0,1,.85-1.62q3.68-3.65,7.33-7.31l.19-.2a.23.23,0,0,0,0-.39,1.89,1.89,0,0,0-.2-.2c-2.43-2.44-4.87-4.89-7.32-7.31a2.38,2.38,0,0,1-.85-1.63v-.76a2.31,2.31,0,0,1,.88-1.6,4.69,4.69,0,0,0,.63-.63,2.42,2.42,0,0,1,2.14-.75,2.23,2.23,0,0,1,1.57.76l7.44,7.44a1.14,1.14,0,0,0,.11.11c.25.25.31.25.56,0l5.54-5.53c.67-.68,1.38-1.34,2-2a2.52,2.52,0,0,1,2.14-.74,2.17,2.17,0,0,1,1.55.75c.29.32.61.62.92.92a1.81,1.81,0,0,1,.57,1.29s0,.09,0,.12v.72a2.46,2.46,0,0,1-.88,1.6c-2.45,2.42-4.88,4.87-7.32,7.3l-.19.2a.22.22,0,0,0,0,.34l.22.22c2.44,2.44,4.88,4.89,7.33,7.32A2.36,2.36,0,0,1,376,182Z"/><path class="cls-4" d="M521,180.26V181a2.25,2.25,0,0,1-.85,1.62,9.32,9.32,0,0,0-.77.77,1.86,1.86,0,0,1-1.18.57H517a2.19,2.19,0,0,1-1.38-.77q-3.66-3.69-7.34-7.36l-.2-.19a.24.24,0,0,0-.4,0l-.2.19q-3.67,3.67-7.34,7.36a2.19,2.19,0,0,1-1.39.77h-1.12a2.07,2.07,0,0,1-1.38-.78c-.25-.27-.52-.54-.79-.79a2,2,0,0,1-.63-1.34v-.76a2.36,2.36,0,0,1,.85-1.62c2.45-2.43,4.88-4.88,7.32-7.32l.2-.2a.23.23,0,0,0,0-.39l-.2-.2c-2.44-2.44-4.87-4.88-7.32-7.31a2.36,2.36,0,0,1-.85-1.62v-.77a2.29,2.29,0,0,1,.88-1.59,7.49,7.49,0,0,0,.63-.63,2.42,2.42,0,0,1,2.13-.76,2.27,2.27,0,0,1,1.58.76c2.47,2.49,5,5,7.44,7.45l.11.1c.25.25.31.26.56,0l5.53-5.53c.68-.68,1.38-1.33,2-2a2.55,2.55,0,0,1,2.15-.74,2.22,2.22,0,0,1,1.55.76c.29.31.6.61.91.92a1.75,1.75,0,0,1,.57,1.28c0,.05,0,.09,0,.12v.72a2.46,2.46,0,0,1-.88,1.6c-2.45,2.43-4.88,4.87-7.32,7.31l-.2.2a.22.22,0,0,0,0,.33,2.28,2.28,0,0,0,.22.22q3.66,3.67,7.33,7.33A2.36,2.36,0,0,1,521,180.26Z"/><path class="cls-4" d="M659.16,181.34v.71a2.21,2.21,0,0,1-.85,1.62,9.32,9.32,0,0,0-.77.77,1.84,1.84,0,0,1-1.18.57h-1.12a2.17,2.17,0,0,1-1.38-.77l-7.35-7.36-.2-.19a.23.23,0,0,0-.39,0l-.2.19c-2.45,2.45-4.91,4.9-7.35,7.36A2.17,2.17,0,0,1,637,185h-1.12a2.09,2.09,0,0,1-1.39-.78c-.25-.27-.51-.54-.79-.79a2.06,2.06,0,0,1-.63-1.34v-.76a2.36,2.36,0,0,1,.85-1.62c2.45-2.43,4.89-4.88,7.33-7.32l.19-.2a.23.23,0,0,0,0-.39l-.19-.2q-3.66-3.66-7.33-7.31a2.36,2.36,0,0,1-.85-1.62v-.77a2.29,2.29,0,0,1,.88-1.59,7.62,7.62,0,0,0,.64-.63,2.4,2.4,0,0,1,2.13-.76,2.27,2.27,0,0,1,1.57.76l7.44,7.45.11.1c.26.25.31.26.56,0l5.54-5.53c.68-.68,1.38-1.33,2-2a2.52,2.52,0,0,1,2.14-.74,2.18,2.18,0,0,1,1.55.76l.92.92a1.79,1.79,0,0,1,.57,1.28c0,.05,0,.09,0,.12v.72a2.46,2.46,0,0,1-.88,1.6c-2.45,2.43-4.88,4.87-7.32,7.31l-.19.2a.21.21,0,0,0,0,.33l.21.22q3.66,3.68,7.33,7.33A2.32,2.32,0,0,1,659.16,181.34Z"/><path class="cls-4" d="M374.22,235v.72a2.26,2.26,0,0,1-.86,1.62c-.27.24-.52.5-.77.77a1.78,1.78,0,0,1-1.18.56h-1.12a2.15,2.15,0,0,1-1.38-.76c-2.44-2.46-4.9-4.91-7.35-7.36l-.2-.2a.24.24,0,0,0-.39,0l-.2.2c-2.45,2.45-4.91,4.9-7.35,7.36a2.15,2.15,0,0,1-1.38.76h-1.12a2,2,0,0,1-1.38-.77c-.26-.27-.52-.54-.8-.79a2.08,2.08,0,0,1-.63-1.34V235a2.33,2.33,0,0,1,.86-1.62c2.45-2.43,4.88-4.87,7.32-7.31l.2-.2a.24.24,0,0,0,0-.39l-.2-.2c-2.44-2.44-4.87-4.89-7.32-7.31a2.36,2.36,0,0,1-.86-1.63v-.76a2.29,2.29,0,0,1,.89-1.6,5.35,5.35,0,0,0,.63-.63,2.39,2.39,0,0,1,2.13-.75,2.27,2.27,0,0,1,1.58.76l7.44,7.44.1.11c.26.25.31.25.56,0l5.54-5.53c.68-.68,1.38-1.34,2-2a2.52,2.52,0,0,1,2.14-.74,2.17,2.17,0,0,1,1.55.75c.3.32.61.62.92.92a1.77,1.77,0,0,1,.57,1.29s0,.09,0,.12v.72a2.51,2.51,0,0,1-.89,1.6c-2.45,2.42-4.88,4.87-7.31,7.3l-.2.2a.22.22,0,0,0,0,.34l.21.22c2.44,2.44,4.88,4.89,7.34,7.32A2.36,2.36,0,0,1,374.22,235Z"/><path class="cls-4" d="M232.67,235v.72a2.21,2.21,0,0,1-.85,1.62,9.32,9.32,0,0,0-.77.77,1.78,1.78,0,0,1-1.18.56h-1.12a2.18,2.18,0,0,1-1.39-.76q-3.66-3.69-7.34-7.36l-.2-.2a.25.25,0,0,0-.4,0l-.19.2c-2.45,2.45-4.91,4.9-7.35,7.36a2.15,2.15,0,0,1-1.38.76h-1.13a2,2,0,0,1-1.38-.77c-.25-.27-.51-.54-.79-.79a2,2,0,0,1-.63-1.34V235a2.36,2.36,0,0,1,.85-1.62q3.68-3.65,7.32-7.31l.2-.2a.23.23,0,0,0,0-.39l-.2-.2c-2.43-2.44-4.87-4.89-7.32-7.31a2.38,2.38,0,0,1-.85-1.63v-.76a2.31,2.31,0,0,1,.88-1.6,5.35,5.35,0,0,0,.63-.63,2.42,2.42,0,0,1,2.14-.75,2.23,2.23,0,0,1,1.57.76l7.44,7.44.11.11c.25.25.31.25.56,0l5.53-5.53c.68-.68,1.39-1.34,2-2a2.55,2.55,0,0,1,2.15-.74,2.19,2.19,0,0,1,1.55.75c.29.32.6.62.92.92a1.81,1.81,0,0,1,.57,1.29s0,.09,0,.12v.72a2.46,2.46,0,0,1-.88,1.6c-2.45,2.42-4.88,4.87-7.32,7.3l-.19.2a.22.22,0,0,0,0,.34l.22.22c2.44,2.44,4.88,4.89,7.33,7.32A2.36,2.36,0,0,1,232.67,235Z"/><path class="cls-4" d="M232.67,389.54v.72a2.19,2.19,0,0,1-.85,1.61c-.27.25-.53.51-.77.77a1.79,1.79,0,0,1-1.18.57h-1.12a2.14,2.14,0,0,1-1.39-.77L220,385.09l-.2-.2a.24.24,0,0,0-.4,0l-.19.2-7.35,7.35a2.12,2.12,0,0,1-1.38.77h-1.13a2,2,0,0,1-1.38-.77,9.81,9.81,0,0,0-.79-.79,2,2,0,0,1-.63-1.34v-.77a2.36,2.36,0,0,1,.85-1.62q3.68-3.65,7.32-7.31l.2-.2a.23.23,0,0,0,0-.39l-.2-.2c-2.43-2.44-4.87-4.89-7.32-7.32a2.36,2.36,0,0,1-.85-1.62v-.76a2.29,2.29,0,0,1,.88-1.6,5.35,5.35,0,0,0,.63-.63,2.42,2.42,0,0,1,2.14-.75,2.26,2.26,0,0,1,1.57.75l7.44,7.45.11.11c.25.25.31.25.56,0l5.53-5.53c.68-.68,1.39-1.34,2-2a2.55,2.55,0,0,1,2.15-.74,2.19,2.19,0,0,1,1.55.75c.29.32.6.62.92.92a1.81,1.81,0,0,1,.57,1.29s0,.09,0,.12v.71a2.46,2.46,0,0,1-.88,1.61c-2.45,2.42-4.88,4.87-7.32,7.3l-.19.2a.22.22,0,0,0,0,.34l.22.22c2.44,2.44,4.88,4.89,7.33,7.32A2.36,2.36,0,0,1,232.67,389.54Z"/><text class="cls-3" transform="translate(109.34 443.97)">7</text><rect class="cls-5" x="202.71" y="114.08" width="34.52" height="7.89"/><path class="cls-6" d="M351,116.5a23.18,23.18,0,0,0,1.72-1.57c1-.94,2.06-1.9,3.07-2.87.21-.2.31-.16.48,0,2.36,2.54,4.74,5.06,7.1,7.6.21.22.31.23.54,0,1.57-1.47,3.15-2.92,4.73-4.38.19.11.16.29.16.46,0,.65,0,1.31,0,2v6.15a1.26,1.26,0,0,1-.15.76q-2.6,2.41-5.18,4.84c-.19.18-.28.08-.4-.05l-5.55-5.93-6.4-6.83-.13-.11Z"/><path class="cls-6" d="M368.62,124.65c0-.18,0-.36,0-.55v-8.78c.76-.72,1.53-1.45,2.3-2.16,2.48-2.32,5-4.62,7.46-6.93,1-.92,2-1.82,2.95-2.75.2-.19.3-.2.5,0,1.44,1.59,2.9,3.16,4.35,4.74l.09.06v.07l-3,2.72-7.12,6.6L370,123.38C369.56,123.81,369.09,124.23,368.62,124.65Z"/><path class="cls-6" d="M494.42,116.5a21.48,21.48,0,0,0,1.73-1.57c1-.94,2.05-1.9,3.06-2.87.21-.2.31-.16.48,0l7.11,7.6c.2.22.31.23.54,0,1.56-1.47,3.14-2.92,4.72-4.38.19.11.16.29.17.46,0,.65,0,1.31,0,2,0,2.05,0,4.1,0,6.15a1.33,1.33,0,0,1-.14.76c-1.73,1.61-3.47,3.22-5.19,4.84-.19.18-.27.08-.4-.05L501,123.51q-3.19-3.42-6.4-6.83a.69.69,0,0,0-.13-.11Z"/><path class="cls-6" d="M512.09,124.65c0-.18,0-.36,0-.55q0-4.38,0-8.78c.77-.72,1.53-1.45,2.3-2.16l7.47-6.93c1-.92,2-1.82,2.95-2.75.2-.19.3-.2.5,0,1.44,1.59,2.9,3.16,4.35,4.74l.08.06v.07l-3,2.72-7.13,6.6-6.13,5.69C513,123.81,512.55,124.23,512.09,124.65Z"/><path class="cls-6" d="M632.56,116.5a21.48,21.48,0,0,0,1.73-1.57c1-.94,2.05-1.9,3.06-2.87.21-.2.31-.16.48,0l7.11,7.6c.2.22.31.23.54,0,1.56-1.47,3.15-2.92,4.72-4.38.2.11.16.29.17.46,0,.65,0,1.31,0,2q0,3.08,0,6.15a1.33,1.33,0,0,1-.14.76L645,129.49c-.19.18-.27.08-.4-.05l-5.55-5.93q-3.2-3.42-6.4-6.83a.47.47,0,0,0-.13-.11Z"/><path class="cls-6" d="M650.23,124.65c0-.18,0-.36,0-.55,0-2.92,0-5.85,0-8.78.77-.72,1.53-1.45,2.3-2.16l7.47-6.93c1-.92,2-1.82,2.95-2.75.2-.19.3-.2.5,0,1.44,1.59,2.9,3.16,4.35,4.74l.08.06v.07l-3,2.72-7.12,6.6-6.14,5.69C651.17,123.81,650.7,124.23,650.23,124.65Z"/><rect class="cls-5" x="629.27" y="221" width="34.52" height="7.89"/><rect class="cls-5" x="490.53" y="271.13" width="34.52" height="7.89"/><rect class="cls-5" x="490.53" y="376.46" width="34.52" height="7.89"/><rect class="cls-5" x="490.53" y="434.57" width="34.52" height="7.89"/><rect class="cls-5" x="629.27" y="272.51" width="34.52" height="7.89"/><rect class="cls-5" x="629.27" y="326.27" width="34.52" height="7.89"/><rect class="cls-5" x="629.27" y="377.85" width="34.52" height="7.89"/><rect class="cls-5" x="629.27" y="434.51" width="34.52" height="7.89"/><rect class="cls-5" x="202.71" y="272.43" width="34.52" height="7.89"/><rect class="cls-5" x="348.72" y="272.43" width="34.52" height="7.89"/><rect class="cls-5" x="348.72" y="377.04" width="34.52" height="7.89"/><rect class="cls-5" x="348.72" y="432.25" width="34.52" height="7.89"/><rect class="cls-5" x="202.71" y="324.01" width="34.52" height="7.89"/><rect class="cls-5" x="202.71" y="431.52" width="34.52" height="7.89"/><path class="cls-7" d="M353.66,328.61c.63-.47,1.16-1.05,1.73-1.57q1.55-1.43,3.06-2.88c.21-.2.31-.16.48,0l7.11,7.59c.2.22.31.24.54,0,1.56-1.47,3.15-2.92,4.72-4.37.2.1.16.29.17.45,0,.66,0,1.31,0,2V336a1.37,1.37,0,0,1-.15.77l-5.19,4.83c-.19.18-.27.09-.4,0l-5.55-5.93-6.4-6.83a.75.75,0,0,0-.13-.11Z"/><path class="cls-7" d="M371.33,336.76c0-.19,0-.37,0-.55,0-2.93,0-5.85,0-8.78l2.3-2.17,7.47-6.93,2.95-2.74c.2-.19.3-.21.5,0,1.44,1.59,2.9,3.17,4.35,4.74a.24.24,0,0,0,.08.06v.07l-3,2.73-7.12,6.6-6.14,5.69C372.27,335.92,371.8,336.33,371.33,336.76Z"/><path class="cls-7" d="M491.37,328.52A23.33,23.33,0,0,0,493.1,327c1-.94,2-1.9,3.06-2.87.21-.2.31-.16.48,0,2.37,2.54,4.74,5.06,7.1,7.6.21.22.32.23.55,0,1.56-1.47,3.14-2.92,4.72-4.38.19.1.16.29.17.46,0,.65,0,1.3,0,2v6.15a1.33,1.33,0,0,1-.14.76c-1.73,1.61-3.47,3.22-5.19,4.84-.19.18-.27.08-.4-.05l-5.55-5.93-6.4-6.83a.69.69,0,0,0-.13-.11Z"/><path class="cls-7" d="M509,336.67c0-.18,0-.36,0-.55q0-4.38,0-8.78c.77-.72,1.53-1.45,2.3-2.16,2.49-2.32,5-4.62,7.47-6.93l3-2.75c.19-.19.3-.2.5,0,1.44,1.59,2.89,3.16,4.35,4.74l.08.06v.07l-3,2.72-7.13,6.6-6.13,5.69Z"/><path class="cls-7" d="M489.16,224.32a23.33,23.33,0,0,0,1.73-1.57c1-.94,2.05-1.9,3.06-2.87.21-.2.31-.16.48,0,2.37,2.54,4.74,5.06,7.1,7.6.21.22.31.23.55,0,1.56-1.47,3.14-2.92,4.72-4.37.19.1.16.29.16.45,0,.65,0,1.31,0,2v6.15a1.33,1.33,0,0,1-.14.76c-1.73,1.61-3.47,3.22-5.19,4.84-.19.18-.28.09-.4-.05l-5.55-5.93-6.4-6.83-.13-.11Z"/><path class="cls-7" d="M506.83,232.47c0-.18,0-.36,0-.55,0-2.92,0-5.85,0-8.77.77-.73,1.53-1.46,2.3-2.17,2.49-2.32,5-4.62,7.47-6.93,1-.92,2-1.82,2.94-2.75.2-.19.3-.2.5,0,1.45,1.59,2.9,3.16,4.36,4.74l.08.06v.07l-3,2.72-7.13,6.6-6.13,5.69Z"/><path class="cls-4" d="M745.66,423.77v.38a1.15,1.15,0,0,1-.45.85c-.14.13-.28.27-.41.41a.94.94,0,0,1-.62.3h-.6a1.15,1.15,0,0,1-.73-.41L739,421.42l-.1-.11a.13.13,0,0,0-.21,0l-.11.11-3.88,3.88a1.13,1.13,0,0,1-.73.41h-.59a1.07,1.07,0,0,1-.73-.41l-.42-.42a1.05,1.05,0,0,1-.33-.7v-.41a1.2,1.2,0,0,1,.45-.85l3.87-3.87.1-.1a.13.13,0,0,0,0-.21l-.1-.11-3.87-3.86a1.22,1.22,0,0,1-.45-.86v-.4a1.19,1.19,0,0,1,.46-.84,3.64,3.64,0,0,0,.34-.34,1.38,1.38,0,0,1,2,0c1.3,1.32,2.62,2.63,3.93,3.94l.05.06c.14.13.17.13.3,0l2.92-2.93c.36-.36.73-.7,1.08-1.08a1.36,1.36,0,0,1,1.13-.39,1.17,1.17,0,0,1,.82.4c.15.17.32.33.48.49a.94.94,0,0,1,.31.68s0,0,0,.06v.38a1.33,1.33,0,0,1-.47.85q-1.94,1.92-3.86,3.86l-.11.1a.13.13,0,0,0,0,.18l.11.12,3.88,3.87A1.24,1.24,0,0,1,745.66,423.77Z"/><path class="cls-6" d="M730.81,383.89a10.29,10.29,0,0,0,.92-.83c.54-.5,1.08-1,1.61-1.51.11-.11.17-.09.26,0l3.75,4c.11.12.17.13.29,0l2.49-2.31c.11.06.09.16.09.24,0,.35,0,.69,0,1,0,1.08,0,2.16,0,3.25a.68.68,0,0,1-.07.4l-2.74,2.55c-.1.1-.15.05-.21,0l-2.94-3.13q-1.68-1.82-3.38-3.61a.2.2,0,0,0-.07-.06Z"/><path class="cls-6" d="M740.15,388.2a2.81,2.81,0,0,1,0-.29c0-1.55,0-3.09,0-4.64l1.22-1.14,3.94-3.67,1.56-1.44c.11-.1.16-.11.27,0,.76.84,1.53,1.67,2.3,2.51l0,0v0c-.52.48-1.05.95-1.57,1.44l-3.76,3.48-3.24,3Z"/><rect class="cls-5" x="730.77" y="433.78" width="18.24" height="4.17"/><path class="cls-7" d="M731,400.21a11.94,11.94,0,0,0,.91-.83c.55-.5,1.09-1,1.62-1.52.11-.1.16-.08.25,0l3.76,4c.11.12.16.12.28,0,.83-.78,1.67-1.54,2.5-2.31.1.05.08.15.09.24,0,.34,0,.69,0,1v3.25a.74.74,0,0,1-.08.41l-2.74,2.55c-.1.1-.14.05-.21,0l-2.93-3.14-3.38-3.61-.07-.05Z"/><path class="cls-7" d="M740.37,404.52c0-.1,0-.2,0-.29v-4.64l1.22-1.15,3.94-3.66,1.56-1.45c.1-.1.16-.11.26,0,.76.84,1.53,1.67,2.3,2.5,0,0,0,0,0,0v0l-1.56,1.44-3.76,3.49-3.25,3Z"/><text class="cls-8" transform="translate(758.01 388.66)">Cumple</text><text class="cls-8" transform="translate(758.25 420.55)">No cumple</text><text class="cls-8" transform="translate(758.94 405.32)">Cumple algunas condiciones</text><text class="cls-8" transform="translate(758.09 436.75)">No hay información</text></svg>