<svg id="Layer_1" data-name="Layer 1" xmlns="http://www.w3.org/2000/svg" viewBox="0 0 1506.05 663.04"><defs><style>.cls-1{font-size:30px;}.cls-1,.cls-6,.cls-7,.cls-8{fill:#fff;}.cls-1,.cls-6,.cls-7{font-family:Helvetica;}.cls-2{fill:#47578f;}.cls-3{fill:#8eb5de;}.cls-4{fill:#ffce31;}.cls-5{fill:#f89723;}.cls-6{font-size:22.91px;}.cls-7{font-size:32.94px;}.cls-9{fill:none;stroke:#fff;stroke-miterlimit:10;}</style></defs><text class="cls-1" transform="translate(662.97 543.93)">Jeans negros</text><polygon class="cls-2" points="737.47 247.18 763.29 247.18 763.29 281.73 851.68 281.73 851.68 239.14 851.68 172.37 851.68 118.27 851.5 118.27 649.62 118.27 649.08 118.27 649.08 172.37 649.08 239.14 649.08 281.73 737.47 281.73 737.47 247.18"/><rect class="cls-3" x="649.08" y="281.73" width="88.39" height="84.94"/><rect class="cls-4" x="763.29" y="366.67" width="88.39" height="65.77"/><rect class="cls-4" x="649.08" y="366.67" width="88.39" height="65.77"/><rect class="cls-5" x="763.29" y="432.44" width="88.39" height="54.34"/><rect class="cls-5" x="649.08" y="432.44" width="88.39" height="54.34"/><rect class="cls-3" x="763.29" y="281.73" width="88.39" height="84.94"/><rect class="cls-5" x="260.07" y="425.26" width="197.95" height="41.02"/><path class="cls-2" d="M523.84,279.7,458.29,167.12l-.28.48v-.45H406.19a46.73,46.73,0,0,1-13.54,27.47,47.81,47.81,0,0,1-67.22,0,46.73,46.73,0,0,1-13.54-27.47H260.07v.32l-.27-.45L194.26,279.6h65.81v62.67H458V279.7Z"/><rect class="cls-3" x="260.07" y="287.31" width="197.95" height="74.65"/><rect class="cls-4" x="260.07" y="361.96" width="197.95" height="63.3"/><rect class="cls-5" x="1088.53" y="425.49" width="191.71" height="39.72"/><rect class="cls-5" x="1088.53" y="425.03" width="191.71" height="0.46"/><polygon class="cls-3" points="1280.24 345.12 1280.24 319.87 1088.53 319.87 1088.53 345.12 1088.53 364.18 1088.53 388.85 1280.24 388.85 1280.24 364.18 1280.24 345.12"/><rect class="cls-4" x="1088.53" y="388.85" width="191.71" height="36.18"/><rect class="cls-5" x="1024.87" y="425.03" width="53.11" height="39.43"/><rect class="cls-4" x="1024.87" y="388.85" width="53.11" height="36.18"/><rect class="cls-3" x="1024.87" y="319.87" width="53.11" height="68.98"/><rect class="cls-5" x="1290.61" y="425.03" width="53.11" height="39.7"/><rect class="cls-4" x="1290.61" y="388.85" width="53.11" height="36.18"/><rect class="cls-3" x="1290.61" y="319.87" width="53.11" height="68.98"/><path class="cls-2" d="M1280.51,175.48l-.27.47v-.44h-50.19a45.28,45.28,0,0,1-13.11,26.6,46.31,46.31,0,0,1-65.11,0,45.28,45.28,0,0,1-13.11-26.6h-50.19v.31l-.25-.43L1025.07,284h-.2v.33l-.07.13h.07v35.46H1078V284.41h10.55v35.46h191.71V284.51h10.37v35.36h53.11V284.51h.27Z"/><text class="cls-1" transform="translate(262.9 532.76)">Polera blanca <tspan x="37.52" y="36">standard</tspan></text><text class="cls-1" transform="translate(1093.56 540.84)">Polerón básico</text><rect class="cls-5" x="72.33" y="527.6" width="28.9" height="28.9"/><rect class="cls-4" x="72.33" y="487.92" width="28.9" height="28.9"/><rect class="cls-3" x="72.33" y="449.4" width="28.9" height="28.9"/><rect class="cls-2" x="72.33" y="409.72" width="28.9" height="28.9"/><text class="cls-6" transform="translate(120.93 431.27)">Levis</text><text class="cls-6" transform="translate(124.02 472.55)">Zara</text><text class="cls-6" transform="translate(122.12 510.73)">H&amp;M</text><text class="cls-6" transform="translate(121.13 551.77)">Shein</text><text class="cls-7" transform="translate(123.04 92.32)">En promedio...</text><path class="cls-8" d="M869.38,198.35l1-1.41a5.94,5.94,0,0,0,3.85,1.65c1.84,0,2.78-1,2.78-2.56,0-4-7-3.16-7-8a4.13,4.13,0,0,1,4.45-4.2,5.4,5.4,0,0,1,4.19,1.9l-1.1,1.22a3.93,3.93,0,0,0-3-1.42,2.31,2.31,0,0,0-2.5,2.4c0,3.62,7,2.62,7,8,0,2.65-1.9,4.41-4.79,4.41A7.44,7.44,0,0,1,869.38,198.35Zm4.24-17h1.5v3.2h-1.5Zm0,18.19h1.5v3.17h-1.5Z"/><path class="cls-8" d="M881.08,198.12l1-1.34a5.43,5.43,0,0,0,4,1.81,3.41,3.41,0,0,0,3.47-3.62,3.19,3.19,0,0,0-3.37-3.49,4.42,4.42,0,0,0-2.72,1l-1.09-.69.52-7.65h8v1.77h-6.15l-.42,4.71a4.82,4.82,0,0,1,2.44-.66c2.71,0,4.92,1.55,4.92,5a5.2,5.2,0,0,1-5.35,5.39A7,7,0,0,1,881.08,198.12Z"/><path class="cls-8" d="M893.94,192c0-5.33,1.92-8.18,5.09-8.18s5.09,2.86,5.09,8.18-1.91,8.3-5.09,8.3S893.94,197.32,893.94,192Zm8.2,0c0-4.66-1.26-6.53-3.11-6.53s-3.1,1.87-3.1,6.53,1.26,6.65,3.1,6.65S902.14,196.65,902.14,192Z"/><path class="cls-8" d="M906.84,198.75a1.49,1.49,0,1,1,1.48,1.55A1.5,1.5,0,0,1,906.84,198.75Z"/><path class="cls-8" d="M912.52,192c0-5.33,1.92-8.18,5.09-8.18s5.09,2.86,5.09,8.18-1.92,8.3-5.09,8.3S912.52,197.32,912.52,192Zm8.19,0c0-4.66-1.25-6.53-3.1-6.53s-3.1,1.87-3.1,6.53,1.26,6.65,3.1,6.65S920.71,196.65,920.71,192Z"/><path class="cls-8" d="M924.9,192c0-5.33,1.92-8.18,5.09-8.18s5.09,2.86,5.09,8.18-1.92,8.3-5.09,8.3S924.9,197.32,924.9,192Zm8.19,0c0-4.66-1.26-6.53-3.1-6.53s-3.1,1.87-3.1,6.53,1.25,6.65,3.1,6.65S933.09,196.65,933.09,192Z"/><path class="cls-8" d="M937.27,192c0-5.33,1.92-8.18,5.09-8.18s5.09,2.86,5.09,8.18-1.91,8.3-5.09,8.3S937.27,197.32,937.27,192Zm8.2,0c0-4.66-1.26-6.53-3.11-6.53s-3.1,1.87-3.1,6.53,1.26,6.65,3.1,6.65S945.47,196.65,945.47,192Z"/><path class="cls-8" d="M869.38,332.12l1-1.41a5.94,5.94,0,0,0,3.85,1.65c1.84,0,2.78-1,2.78-2.56,0-4-7-3.16-7-8a4.13,4.13,0,0,1,4.45-4.2,5.4,5.4,0,0,1,4.19,1.9l-1.1,1.22a4,4,0,0,0-3-1.42,2.31,2.31,0,0,0-2.5,2.4c0,3.62,7,2.62,7,8,0,2.66-1.9,4.41-4.79,4.41A7.44,7.44,0,0,1,869.38,332.12Zm4.24-17h1.5v3.2h-1.5Zm0,18.19h1.5v3.17h-1.5Z"/><path class="cls-8" d="M881.46,332.55c4.77-4.75,7.47-7.61,7.47-10.2a2.8,2.8,0,0,0-3-3.1,4.66,4.66,0,0,0-3.38,1.91L881.36,320a6.22,6.22,0,0,1,4.81-2.41,4.41,4.41,0,0,1,4.77,4.67c0,3-2.74,5.95-6.48,9.88.86-.06,1.85-.13,2.67-.13h4.59v1.76H881.46Z"/><path class="cls-8" d="M893.86,329.7a5,5,0,0,1,3-4.27v-.1a4.49,4.49,0,0,1-2.22-3.67c0-2.44,1.94-4.07,4.49-4.07,2.79,0,4.49,1.75,4.49,4.22a5.16,5.16,0,0,1-2.19,3.83v.1c1.42.84,2.77,2,2.77,4.08,0,2.39-2.05,4.25-5.12,4.25S893.86,332.23,893.86,329.7Zm8.38.07c0-2.06-2-2.79-4.31-3.72a4.29,4.29,0,0,0-2.22,3.47,3.14,3.14,0,0,0,3.41,3A2.82,2.82,0,0,0,902.24,329.77Zm-.38-7.85a2.64,2.64,0,0,0-2.76-2.81,2.45,2.45,0,0,0-2.58,2.55c0,1.9,1.76,2.69,3.66,3.45A4.29,4.29,0,0,0,901.86,321.92Z"/><path class="cls-8" d="M906.84,332.52a1.49,1.49,0,1,1,1.48,1.55A1.5,1.5,0,0,1,906.84,332.52Z"/><path class="cls-8" d="M912.52,325.77c0-5.33,1.92-8.18,5.09-8.18s5.09,2.86,5.09,8.18-1.92,8.3-5.09,8.3S912.52,331.09,912.52,325.77Zm8.19,0c0-4.66-1.25-6.53-3.1-6.53s-3.1,1.87-3.1,6.53,1.26,6.65,3.1,6.65S920.71,330.42,920.71,325.77Z"/><path class="cls-8" d="M924.9,325.77c0-5.33,1.92-8.18,5.09-8.18s5.09,2.86,5.09,8.18-1.92,8.3-5.09,8.3S924.9,331.09,924.9,325.77Zm8.19,0c0-4.66-1.26-6.53-3.1-6.53s-3.1,1.87-3.1,6.53,1.25,6.65,3.1,6.65S933.09,330.42,933.09,325.77Z"/><path class="cls-8" d="M937.27,325.77c0-5.33,1.92-8.18,5.09-8.18s5.09,2.86,5.09,8.18-1.91,8.3-5.09,8.3S937.27,331.09,937.27,325.77Zm8.2,0c0-4.66-1.26-6.53-3.11-6.53s-3.1,1.87-3.1,6.53,1.26,6.65,3.1,6.65S945.47,330.42,945.47,325.77Z"/><path class="cls-8" d="M869.38,409.17l1-1.41a6,6,0,0,0,3.85,1.65c1.84,0,2.78-1,2.78-2.56,0-4-7-3.17-7-8a4.13,4.13,0,0,1,4.45-4.21,5.37,5.37,0,0,1,4.19,1.91l-1.1,1.21a4,4,0,0,0-3-1.41,2.3,2.3,0,0,0-2.5,2.39c0,3.63,7,2.62,7,8,0,2.66-1.9,4.41-4.79,4.41A7.49,7.49,0,0,1,869.38,409.17Zm4.24-17h1.5v3.2h-1.5Zm0,18.2h1.5v3.16h-1.5Z"/><path class="cls-8" d="M881.46,409.6c4.77-4.76,7.47-7.62,7.47-10.2a2.8,2.8,0,0,0-3-3.1,4.64,4.64,0,0,0-3.38,1.9L881.36,397a6.22,6.22,0,0,1,4.81-2.41,4.41,4.41,0,0,1,4.77,4.68c0,3-2.74,5.94-6.48,9.88.86-.07,1.85-.14,2.67-.14h4.59v1.76H881.46Z"/><path class="cls-8" d="M900.41,400.17c0-.84.07-2.21.12-3h-.1c-.4.75-.84,1.45-1.29,2.24l-3.71,5.42h9.09v1.64H893.28v-1.36l6.8-10.14h2.27v15.88h-1.94Z"/><path class="cls-8" d="M906.84,409.56a1.49,1.49,0,1,1,1.48,1.55A1.5,1.5,0,0,1,906.84,409.56Z"/><path class="cls-8" d="M912.52,402.81c0-5.32,1.92-8.18,5.09-8.18s5.09,2.87,5.09,8.18-1.92,8.3-5.09,8.3S912.52,408.14,912.52,402.81Zm8.19,0c0-4.65-1.25-6.53-3.1-6.53s-3.1,1.88-3.1,6.53,1.26,6.65,3.1,6.65S920.71,407.47,920.71,402.81Z"/><path class="cls-8" d="M924.9,402.81c0-5.32,1.92-8.18,5.09-8.18s5.09,2.87,5.09,8.18-1.92,8.3-5.09,8.3S924.9,408.14,924.9,402.81Zm8.19,0c0-4.65-1.26-6.53-3.1-6.53s-3.1,1.88-3.1,6.53,1.25,6.65,3.1,6.65S933.09,407.47,933.09,402.81Z"/><path class="cls-8" d="M937.27,402.81c0-5.32,1.92-8.18,5.09-8.18s5.09,2.87,5.09,8.18-1.91,8.3-5.09,8.3S937.27,408.14,937.27,402.81Zm8.2,0c0-4.65-1.26-6.53-3.11-6.53s-3.1,1.88-3.1,6.53,1.26,6.65,3.1,6.65S945.47,407.47,945.47,402.81Z"/><path class="cls-8" d="M869.38,476.58l1-1.41a6,6,0,0,0,3.85,1.65c1.84,0,2.78-1,2.78-2.56,0-4-7-3.16-7-8a4.14,4.14,0,0,1,4.45-4.21,5.4,5.4,0,0,1,4.19,1.91l-1.1,1.22a3.93,3.93,0,0,0-3-1.42,2.31,2.31,0,0,0-2.5,2.4c0,3.62,7,2.62,7,8,0,2.65-1.9,4.4-4.79,4.4A7.49,7.49,0,0,1,869.38,476.58Zm4.24-17h1.5v3.2h-1.5Zm0,18.2h1.5V481h-1.5Z"/><path class="cls-8" d="M881.46,477c4.77-4.76,7.47-7.62,7.47-10.2a2.8,2.8,0,0,0-3-3.1,4.62,4.62,0,0,0-3.38,1.91l-1.18-1.16a6.23,6.23,0,0,1,4.81-2.42,4.42,4.42,0,0,1,4.77,4.68c0,3-2.74,5.94-6.48,9.88.86-.07,1.85-.14,2.67-.14h4.59v1.77H881.46Z"/><path class="cls-8" d="M893.94,470.23c0-5.33,1.92-8.19,5.09-8.19s5.09,2.87,5.09,8.19-1.91,8.29-5.09,8.29S893.94,475.55,893.94,470.23Zm8.2,0c0-4.66-1.26-6.54-3.11-6.54s-3.1,1.88-3.1,6.54,1.26,6.64,3.1,6.64S902.14,474.88,902.14,470.23Z"/><path class="cls-8" d="M906.84,477a1.49,1.49,0,1,1,1.48,1.55A1.5,1.5,0,0,1,906.84,477Z"/><path class="cls-8" d="M912.52,470.23c0-5.33,1.92-8.19,5.09-8.19s5.09,2.87,5.09,8.19-1.92,8.29-5.09,8.29S912.52,475.55,912.52,470.23Zm8.19,0c0-4.66-1.25-6.54-3.1-6.54s-3.1,1.88-3.1,6.54,1.26,6.64,3.1,6.64S920.71,474.88,920.71,470.23Z"/><path class="cls-8" d="M924.9,470.23c0-5.33,1.92-8.19,5.09-8.19s5.09,2.87,5.09,8.19-1.92,8.29-5.09,8.29S924.9,475.55,924.9,470.23Zm8.19,0c0-4.66-1.26-6.54-3.1-6.54s-3.1,1.88-3.1,6.54,1.25,6.64,3.1,6.64S933.09,474.88,933.09,470.23Z"/><path class="cls-8" d="M937.27,470.23c0-5.33,1.92-8.19,5.09-8.19s5.09,2.87,5.09,8.19-1.91,8.29-5.09,8.29S937.27,475.55,937.27,470.23Zm8.2,0c0-4.66-1.26-6.54-3.11-6.54s-3.1,1.88-3.1,6.54,1.26,6.64,3.1,6.64S945.47,474.88,945.47,470.23Z"/><polyline class="cls-9" points="951.05 210.08 863 210.08 810.72 175.68"/><polyline class="cls-9" points="950.5 343.42 862.45 343.42 810.17 309.03"/><polyline class="cls-9" points="954.62 419.47 866.57 419.47 814.29 385.07"/><polyline class="cls-9" points="949.12 485.88 861.07 485.88 808.79 451.49"/><path class="cls-8" d="M1378.06,284.54l1-1.41a6,6,0,0,0,3.84,1.65c1.85,0,2.79-1,2.79-2.56,0-4-7-3.16-7-8a4.14,4.14,0,0,1,4.45-4.21,5.37,5.37,0,0,1,4.18,1.91l-1.09,1.22a3.94,3.94,0,0,0-3-1.42,2.31,2.31,0,0,0-2.51,2.4c0,3.62,7,2.62,7,8,0,2.65-1.89,4.4-4.79,4.4A7.48,7.48,0,0,1,1378.06,284.54Zm4.24-17h1.5v3.2h-1.5Zm0,18.2h1.5v3.16h-1.5Z"/><path class="cls-8" d="M1396.71,275.54c0-.83.07-2.21.12-3h-.1c-.4.76-.84,1.45-1.29,2.24l-3.71,5.43h9.09v1.63h-11.24v-1.35l6.8-10.15h2.27v15.89h-1.94Z"/><path class="cls-8" d="M1402.51,285c4.78-4.76,7.48-7.62,7.48-10.2a2.8,2.8,0,0,0-3-3.1,4.61,4.61,0,0,0-3.38,1.91l-1.19-1.16a6.25,6.25,0,0,1,4.82-2.42,4.42,4.42,0,0,1,4.76,4.68c0,3-2.73,5.94-6.48,9.88.86-.07,1.85-.14,2.67-.14h4.59v1.77h-10.26Z"/><path class="cls-8" d="M1415.52,284.93a1.49,1.49,0,1,1,1.48,1.55A1.5,1.5,0,0,1,1415.52,284.93Z"/><path class="cls-8" d="M1421.2,278.19c0-5.33,1.92-8.19,5.09-8.19s5.09,2.87,5.09,8.19-1.92,8.29-5.09,8.29S1421.2,283.51,1421.2,278.19Zm8.19,0c0-4.66-1.26-6.54-3.1-6.54s-3.1,1.88-3.1,6.54,1.25,6.64,3.1,6.64S1429.39,282.84,1429.39,278.19Z"/><path class="cls-8" d="M1433.57,278.19c0-5.33,1.92-8.19,5.09-8.19s5.09,2.87,5.09,8.19-1.91,8.29-5.09,8.29S1433.57,283.51,1433.57,278.19Zm8.2,0c0-4.66-1.26-6.54-3.11-6.54s-3.1,1.88-3.1,6.54,1.26,6.64,3.1,6.64S1441.77,282.84,1441.77,278.19Z"/><path class="cls-8" d="M1446,278.19c0-5.33,1.92-8.19,5.09-8.19s5.09,2.87,5.09,8.19-1.92,8.29-5.09,8.29S1446,283.51,1446,278.19Zm8.19,0c0-4.66-1.25-6.54-3.1-6.54s-3.1,1.88-3.1,6.54,1.25,6.64,3.1,6.64S1454.14,282.84,1454.14,278.19Z"/><path class="cls-8" d="M1378.06,358.31l1-1.41a6,6,0,0,0,3.84,1.65c1.85,0,2.79-1,2.79-2.56,0-4-7-3.16-7-8a4.14,4.14,0,0,1,4.45-4.21,5.37,5.37,0,0,1,4.18,1.91l-1.09,1.22a3.94,3.94,0,0,0-3-1.42,2.31,2.31,0,0,0-2.51,2.4c0,3.62,7,2.62,7,8,0,2.65-1.89,4.4-4.79,4.4A7.43,7.43,0,0,1,1378.06,358.31Zm4.24-17h1.5v3.2h-1.5Zm0,18.2h1.5v3.17h-1.5Z"/><path class="cls-8" d="M1390.14,358.74c4.77-4.76,7.47-7.61,7.47-10.2a2.8,2.8,0,0,0-3-3.1,4.66,4.66,0,0,0-3.38,1.91l-1.19-1.16a6.25,6.25,0,0,1,4.82-2.42,4.42,4.42,0,0,1,4.77,4.68c0,3-2.74,5.94-6.49,9.88.86-.07,1.85-.13,2.67-.13h4.6V360h-10.26Z"/><path class="cls-8" d="M1402.54,355.89a5,5,0,0,1,3-4.27v-.1a4.48,4.48,0,0,1-2.22-3.67c0-2.44,1.94-4.08,4.49-4.08,2.78,0,4.49,1.76,4.49,4.23a5.18,5.18,0,0,1-2.19,3.83v.1c1.42.84,2.76,2,2.76,4.08,0,2.38-2,4.24-5.11,4.24S1402.54,358.42,1402.54,355.89Zm8.37.07c0-2.06-2-2.79-4.3-3.72a4.25,4.25,0,0,0-2.22,3.47,3.14,3.14,0,0,0,3.4,3A2.82,2.82,0,0,0,1410.91,356Zm-.38-7.85a2.63,2.63,0,0,0-2.75-2.81,2.45,2.45,0,0,0-2.58,2.55c0,1.89,1.76,2.69,3.66,3.45A4.28,4.28,0,0,0,1410.53,348.11Z"/><path class="cls-8" d="M1415.52,358.7a1.49,1.49,0,1,1,1.48,1.55A1.5,1.5,0,0,1,1415.52,358.7Z"/><path class="cls-8" d="M1421.2,352c0-5.33,1.92-8.19,5.09-8.19s5.09,2.87,5.09,8.19-1.92,8.29-5.09,8.29S1421.2,357.28,1421.2,352Zm8.19,0c0-4.66-1.26-6.54-3.1-6.54s-3.1,1.88-3.1,6.54,1.25,6.64,3.1,6.64S1429.39,356.61,1429.39,352Z"/><path class="cls-8" d="M1433.57,352c0-5.33,1.92-8.19,5.09-8.19s5.09,2.87,5.09,8.19-1.91,8.29-5.09,8.29S1433.57,357.28,1433.57,352Zm8.2,0c0-4.66-1.26-6.54-3.11-6.54s-3.1,1.88-3.1,6.54,1.26,6.64,3.1,6.64S1441.77,356.61,1441.77,352Z"/><path class="cls-8" d="M1446,352c0-5.33,1.92-8.19,5.09-8.19s5.09,2.87,5.09,8.19-1.92,8.29-5.09,8.29S1446,357.28,1446,352Zm8.19,0c0-4.66-1.25-6.54-3.1-6.54s-3.1,1.88-3.1,6.54,1.25,6.64,3.1,6.64S1454.14,356.61,1454.14,352Z"/><path class="cls-8" d="M1378.06,425.36l1-1.41a6,6,0,0,0,3.84,1.64c1.85,0,2.79-1,2.79-2.56,0-4-7-3.16-7-8a4.13,4.13,0,0,1,4.45-4.21,5.33,5.33,0,0,1,4.18,1.91l-1.09,1.21a4,4,0,0,0-3-1.42,2.31,2.31,0,0,0-2.51,2.4c0,3.62,7,2.62,7,8,0,2.66-1.89,4.41-4.79,4.41A7.48,7.48,0,0,1,1378.06,425.36Zm4.24-17h1.5v3.2h-1.5Zm0,18.2h1.5v3.16h-1.5Z"/><path class="cls-8" d="M1391.1,425.29h3.64V413.6h-2.89v-1.32a9.66,9.66,0,0,0,3.38-1.16h1.56v14.17h3.28V427h-9Z"/><path class="cls-8" d="M1402.13,425.12l1-1.34a5.35,5.35,0,0,0,4,1.81,3.4,3.4,0,0,0,3.47-3.61,3.18,3.18,0,0,0-3.36-3.49,4.46,4.46,0,0,0-2.73,1l-1.09-.7.53-7.64h7.94v1.76h-6.15l-.42,4.71a4.82,4.82,0,0,1,2.44-.66c2.71,0,4.92,1.55,4.92,5a5.2,5.2,0,0,1-5.34,5.39A7,7,0,0,1,1402.13,425.12Z"/><path class="cls-8" d="M1415.52,425.75a1.49,1.49,0,1,1,1.48,1.55A1.5,1.5,0,0,1,1415.52,425.75Z"/><path class="cls-8" d="M1421.2,419c0-5.33,1.92-8.18,5.09-8.18s5.09,2.86,5.09,8.18-1.92,8.3-5.09,8.3S1421.2,424.33,1421.2,419Zm8.19,0c0-4.66-1.26-6.53-3.1-6.53s-3.1,1.87-3.1,6.53,1.25,6.65,3.1,6.65S1429.39,423.66,1429.39,419Z"/><path class="cls-8" d="M1433.57,419c0-5.33,1.92-8.18,5.09-8.18s5.09,2.86,5.09,8.18-1.91,8.3-5.09,8.3S1433.57,424.33,1433.57,419Zm8.2,0c0-4.66-1.26-6.53-3.11-6.53s-3.1,1.87-3.1,6.53,1.26,6.65,3.1,6.65S1441.77,423.66,1441.77,419Z"/><path class="cls-8" d="M1446,419c0-5.33,1.92-8.18,5.09-8.18s5.09,2.86,5.09,8.18-1.92,8.3-5.09,8.3S1446,424.33,1446,419Zm8.19,0c0-4.66-1.25-6.53-3.1-6.53s-3.1,1.87-3.1,6.53,1.25,6.65,3.1,6.65S1454.14,423.66,1454.14,419Z"/><path class="cls-8" d="M1378.06,472.77l1-1.41a6,6,0,0,0,3.84,1.65c1.85,0,2.79-1,2.79-2.56,0-4-7-3.16-7-8a4.14,4.14,0,0,1,4.45-4.21,5.37,5.37,0,0,1,4.18,1.91l-1.09,1.21a4,4,0,0,0-3-1.41,2.31,2.31,0,0,0-2.51,2.4c0,3.62,7,2.62,7,8,0,2.65-1.89,4.4-4.79,4.4A7.48,7.48,0,0,1,1378.06,472.77Zm4.24-17h1.5V459h-1.5Zm0,18.2h1.5v3.16h-1.5Z"/><path class="cls-8" d="M1391.1,472.71h3.64V461h-2.89V459.7a9.65,9.65,0,0,0,3.38-1.17h1.56v14.18h3.28v1.7h-9Z"/><path class="cls-8" d="M1410.53,460.29h-7.91v-1.76h10.23v1.26c-3.76,4.81-4.53,8.43-4.8,14.62h-2.11C1406.2,468.43,1407.4,464.65,1410.53,460.29Z"/><path class="cls-8" d="M1415.52,473.16a1.49,1.49,0,1,1,1.48,1.55A1.5,1.5,0,0,1,1415.52,473.16Z"/><path class="cls-8" d="M1421.2,466.41c0-5.32,1.92-8.18,5.09-8.18s5.09,2.87,5.09,8.18-1.92,8.3-5.09,8.3S1421.2,471.74,1421.2,466.41Zm8.19,0c0-4.65-1.26-6.53-3.1-6.53s-3.1,1.88-3.1,6.53,1.25,6.65,3.1,6.65S1429.39,471.07,1429.39,466.41Z"/><path class="cls-8" d="M1433.57,466.41c0-5.32,1.92-8.18,5.09-8.18s5.09,2.87,5.09,8.18-1.91,8.3-5.09,8.3S1433.57,471.74,1433.57,466.41Zm8.2,0c0-4.65-1.26-6.53-3.11-6.53s-3.1,1.88-3.1,6.53,1.26,6.65,3.1,6.65S1441.77,471.07,1441.77,466.41Z"/><path class="cls-8" d="M1446,466.41c0-5.32,1.92-8.18,5.09-8.18s5.09,2.87,5.09,8.18-1.92,8.3-5.09,8.3S1446,471.74,1446,466.41Zm8.19,0c0-4.65-1.25-6.53-3.1-6.53s-3.1,1.88-3.1,6.53,1.25,6.65,3.1,6.65S1454.14,471.07,1454.14,466.41Z"/><polyline class="cls-9" points="1459.72 296.26 1371.67 296.26 1319.39 261.87"/><polyline class="cls-9" points="1459.17 369.61 1371.12 369.61 1318.84 335.22"/><polyline class="cls-9" points="1463.3 435.66 1375.25 435.66 1322.97 401.26"/><polyline class="cls-9" points="1457.8 482.07 1369.75 482.07 1317.47 447.68"/><path class="cls-8" d="M510.32,212.41l1-1.41a5.94,5.94,0,0,0,3.85,1.65c1.84,0,2.78-1,2.78-2.56,0-4-7-3.16-7-8a4.13,4.13,0,0,1,4.45-4.2,5.4,5.4,0,0,1,4.19,1.9l-1.1,1.22a4,4,0,0,0-3-1.42A2.31,2.31,0,0,0,513,202c0,3.62,7,2.62,7,8,0,2.66-1.89,4.41-4.78,4.41A7.44,7.44,0,0,1,510.32,212.41Zm4.24-17h1.5v3.2h-1.5Zm0,18.19h1.5v3.17h-1.5Z"/><path class="cls-8" d="M522.4,212.84c4.77-4.75,7.47-7.61,7.47-10.2a2.8,2.8,0,0,0-3-3.1,4.66,4.66,0,0,0-3.38,1.91l-1.19-1.16a6.24,6.24,0,0,1,4.82-2.41,4.41,4.41,0,0,1,4.77,4.67c0,3-2.74,5.95-6.49,9.88.87-.06,1.85-.13,2.68-.13h4.59v1.76H522.4Z"/><path class="cls-8" d="M534.88,206.06c0-5.33,1.92-8.18,5.09-8.18s5.09,2.86,5.09,8.18-1.92,8.3-5.09,8.3S534.88,211.38,534.88,206.06Zm8.19,0c0-4.66-1.25-6.53-3.1-6.53s-3.1,1.87-3.1,6.53,1.26,6.65,3.1,6.65S543.07,210.71,543.07,206.06Z"/><path class="cls-8" d="M547.78,212.81a1.49,1.49,0,1,1,1.48,1.55A1.5,1.5,0,0,1,547.78,212.81Z"/><path class="cls-8" d="M553.46,206.06c0-5.33,1.92-8.18,5.09-8.18s5.09,2.86,5.09,8.18-1.92,8.3-5.09,8.3S553.46,211.38,553.46,206.06Zm8.19,0c0-4.66-1.26-6.53-3.1-6.53s-3.1,1.87-3.1,6.53,1.25,6.65,3.1,6.65S561.65,210.71,561.65,206.06Z"/><path class="cls-8" d="M565.84,206.06c0-5.33,1.91-8.18,5.09-8.18s5.09,2.86,5.09,8.18-1.92,8.3-5.09,8.3S565.84,211.38,565.84,206.06Zm8.19,0c0-4.66-1.26-6.53-3.1-6.53s-3.11,1.87-3.11,6.53,1.26,6.65,3.11,6.65S574,210.71,574,206.06Z"/><path class="cls-8" d="M578.21,206.06c0-5.33,1.92-8.18,5.09-8.18s5.09,2.86,5.09,8.18-1.92,8.3-5.09,8.3S578.21,211.38,578.21,206.06Zm8.19,0c0-4.66-1.25-6.53-3.1-6.53s-3.1,1.87-3.1,6.53,1.26,6.65,3.1,6.65S586.4,210.71,586.4,206.06Z"/><path class="cls-8" d="M494.32,324.18l1-1.4a6,6,0,0,0,3.85,1.64c1.84,0,2.78-1,2.78-2.56,0-4-7-3.16-7-8a4.13,4.13,0,0,1,4.45-4.2,5.4,5.4,0,0,1,4.19,1.9l-1.1,1.22a4,4,0,0,0-3-1.42,2.31,2.31,0,0,0-2.51,2.4c0,3.62,7,2.62,7,8,0,2.66-1.89,4.41-4.78,4.41A7.44,7.44,0,0,1,494.32,324.18Zm4.24-17h1.5v3.2h-1.5Zm0,18.19h1.5v3.17h-1.5Z"/><path class="cls-8" d="M507.37,324.12H511V312.43h-2.89v-1.32a9.66,9.66,0,0,0,3.38-1.16h1.56v14.17h3.28v1.71h-9Z"/><path class="cls-8" d="M518.78,324.62c4.77-4.76,7.47-7.62,7.47-10.21a2.8,2.8,0,0,0-3-3.09,4.63,4.63,0,0,0-3.38,1.9l-1.19-1.16a6.24,6.24,0,0,1,4.82-2.41,4.42,4.42,0,0,1,4.77,4.67c0,3-2.74,5.95-6.49,9.88.86-.06,1.85-.13,2.67-.13H529v1.76H518.78Z"/><path class="cls-8" d="M531.78,324.58a1.49,1.49,0,1,1,1.48,1.55A1.5,1.5,0,0,1,531.78,324.58Z"/><path class="cls-8" d="M537.46,317.83c0-5.33,1.92-8.18,5.09-8.18s5.09,2.86,5.09,8.18-1.92,8.3-5.09,8.3S537.46,323.15,537.46,317.83Zm8.19,0c0-4.66-1.25-6.53-3.1-6.53s-3.1,1.87-3.1,6.53,1.25,6.65,3.1,6.65S545.65,322.48,545.65,317.83Z"/><path class="cls-8" d="M549.84,317.83c0-5.33,1.91-8.18,5.09-8.18s5.09,2.86,5.09,8.18-1.92,8.3-5.09,8.3S549.84,323.15,549.84,317.83Zm8.19,0c0-4.66-1.26-6.53-3.1-6.53s-3.11,1.87-3.11,6.53,1.26,6.65,3.11,6.65S558,322.48,558,317.83Z"/><path class="cls-8" d="M562.21,317.83c0-5.33,1.92-8.18,5.09-8.18s5.09,2.86,5.09,8.18-1.92,8.3-5.09,8.3S562.21,323.15,562.21,317.83Zm8.19,0c0-4.66-1.25-6.53-3.1-6.53s-3.1,1.87-3.1,6.53,1.26,6.65,3.1,6.65S570.4,322.48,570.4,317.83Z"/><path class="cls-8" d="M494.32,401.23l1-1.41a6,6,0,0,0,3.85,1.65c1.84,0,2.78-1,2.78-2.56,0-4-7-3.17-7-8a4.14,4.14,0,0,1,4.45-4.21,5.37,5.37,0,0,1,4.18,1.91l-1.09,1.21a4,4,0,0,0-3-1.41,2.31,2.31,0,0,0-2.51,2.39c0,3.63,7,2.63,7,8,0,2.65-1.89,4.4-4.78,4.4A7.49,7.49,0,0,1,494.32,401.23Zm4.24-17h1.5v3.2h-1.5Zm0,18.2h1.5v3.16h-1.5Z"/><path class="cls-8" d="M507.36,401.17H511v-11.7h-2.89v-1.31a9.65,9.65,0,0,0,3.38-1.17h1.56v14.18h3.28v1.7h-9Z"/><path class="cls-8" d="M518.88,394.87c0-5.32,1.92-8.18,5.09-8.18s5.09,2.87,5.09,8.18-1.92,8.3-5.09,8.3S518.88,400.2,518.88,394.87Zm8.19,0c0-4.65-1.25-6.53-3.1-6.53s-3.1,1.88-3.1,6.53,1.26,6.65,3.1,6.65S527.07,399.53,527.07,394.87Z"/><path class="cls-8" d="M531.78,401.62a1.49,1.49,0,1,1,1.48,1.55A1.5,1.5,0,0,1,531.78,401.62Z"/><path class="cls-8" d="M537.46,394.87c0-5.32,1.92-8.18,5.09-8.18s5.09,2.87,5.09,8.18-1.92,8.3-5.09,8.3S537.46,400.2,537.46,394.87Zm8.19,0c0-4.65-1.26-6.53-3.1-6.53s-3.1,1.88-3.1,6.53,1.25,6.65,3.1,6.65S545.65,399.53,545.65,394.87Z"/><path class="cls-8" d="M549.84,394.87c0-5.32,1.91-8.18,5.09-8.18s5.09,2.87,5.09,8.18-1.92,8.3-5.09,8.3S549.84,400.2,549.84,394.87Zm8.19,0c0-4.65-1.26-6.53-3.1-6.53s-3.11,1.88-3.11,6.53,1.26,6.65,3.11,6.65S558,399.53,558,394.87Z"/><path class="cls-8" d="M562.21,394.87c0-5.32,1.92-8.18,5.09-8.18s5.09,2.87,5.09,8.18-1.92,8.3-5.09,8.3S562.21,400.2,562.21,394.87Zm8.19,0c0-4.65-1.25-6.53-3.1-6.53s-3.1,1.88-3.1,6.53,1.26,6.65,3.1,6.65S570.4,399.53,570.4,394.87Z"/><path class="cls-8" d="M500.51,468.64l1-1.41a5.93,5.93,0,0,0,3.84,1.65c1.85,0,2.79-1,2.79-2.56,0-4-7-3.16-7-8a4.13,4.13,0,0,1,4.45-4.2,5.36,5.36,0,0,1,4.18,1.9l-1.09,1.22a4,4,0,0,0-3-1.42,2.31,2.31,0,0,0-2.51,2.4c0,3.62,7,2.62,7,8,0,2.66-1.89,4.41-4.79,4.41A7.44,7.44,0,0,1,500.51,468.64Zm4.24-17h1.5v3.2h-1.5Zm0,18.19h1.5V473h-1.5Z"/><path class="cls-8" d="M520.6,456.17h-7.91V454.4h10.24v1.26c-3.77,4.81-4.54,8.43-4.81,14.63H516C516.28,464.3,517.47,460.52,520.6,456.17Z"/><path class="cls-8" d="M525.59,469a1.49,1.49,0,1,1,1.48,1.55A1.5,1.5,0,0,1,525.59,469Z"/><path class="cls-8" d="M531.27,462.29c0-5.33,1.92-8.18,5.09-8.18s5.09,2.86,5.09,8.18-1.92,8.3-5.09,8.3S531.27,467.61,531.27,462.29Zm8.19,0c0-4.66-1.25-6.53-3.1-6.53s-3.1,1.87-3.1,6.53,1.26,6.65,3.1,6.65S539.46,466.94,539.46,462.29Z"/><path class="cls-8" d="M543.65,462.29c0-5.33,1.92-8.18,5.09-8.18s5.09,2.86,5.09,8.18-1.92,8.3-5.09,8.3S543.65,467.61,543.65,462.29Zm8.19,0c0-4.66-1.26-6.53-3.1-6.53s-3.1,1.87-3.1,6.53,1.25,6.65,3.1,6.65S551.84,466.94,551.84,462.29Z"/><path class="cls-8" d="M556,462.29c0-5.33,1.92-8.18,5.09-8.18s5.09,2.86,5.09,8.18-1.91,8.3-5.09,8.3S556,467.61,556,462.29Zm8.2,0c0-4.66-1.26-6.53-3.11-6.53s-3.1,1.87-3.1,6.53,1.26,6.65,3.1,6.65S564.22,466.94,564.22,462.29Z"/><polyline class="cls-9" points="591.99 224.14 503.93 224.14 451.65 189.74"/><polyline class="cls-9" points="575.43 335.49 487.38 335.49 435.1 301.09"/><polyline class="cls-9" points="579.56 411.53 491.51 411.53 439.23 377.13"/><polyline class="cls-9" points="574.06 477.94 486.01 477.94 433.73 443.55"/></svg>