<svg id="Layer_1" data-name="Layer 1" xmlns="http://www.w3.org/2000/svg" viewBox="0 0 1506.05 663.04"><defs><style>.cls-1{font-size:30px;}.cls-1,.cls-6,.cls-7{fill:#fff;font-family:Helvetica;}.cls-2{fill:#47578f;}.cls-3{fill:#8eb5de;}.cls-4{fill:#ffce31;}.cls-5{fill:#f89723;}.cls-6{font-size:22.91px;}.cls-7{font-size:32.94px;}</style></defs><text class="cls-1" transform="translate(662.97 543.93)">Jeans negros</text><polygon class="cls-2" points="737.47 247.18 763.29 247.18 763.29 281.73 851.68 281.73 851.68 239.14 851.68 172.37 851.68 118.27 851.5 118.27 649.62 118.27 649.08 118.27 649.08 172.37 649.08 239.14 649.08 281.73 737.47 281.73 737.47 247.18"/><rect class="cls-3" x="649.08" y="281.73" width="88.39" height="84.94"/><rect class="cls-4" x="763.29" y="366.67" width="88.39" height="65.77"/><rect class="cls-4" x="649.08" y="366.67" width="88.39" height="65.77"/><rect class="cls-5" x="763.29" y="432.44" width="88.39" height="54.34"/><rect class="cls-5" x="649.08" y="432.44" width="88.39" height="54.34"/><rect class="cls-3" x="763.29" y="281.73" width="88.39" height="84.94"/><rect class="cls-5" x="304.07" y="425.26" width="197.95" height="41.02"/><path class="cls-2" d="M567.84,279.7,502.29,167.12l-.28.48v-.45H450.19a46.73,46.73,0,0,1-13.54,27.47,47.81,47.81,0,0,1-67.22,0,46.73,46.73,0,0,1-13.54-27.47H304.07v.32l-.27-.45L238.26,279.6h65.81v62.67H502V279.7Z"/><rect class="cls-3" x="304.07" y="287.31" width="197.95" height="74.65"/><rect class="cls-4" x="304.07" y="361.96" width="197.95" height="63.3"/><rect class="cls-5" x="996.35" y="425.49" width="191.71" height="39.72"/><rect class="cls-5" x="996.35" y="425.03" width="191.71" height="0.46"/><polygon class="cls-3" points="1188.06 345.12 1188.06 319.87 996.35 319.87 996.35 345.12 996.35 364.18 996.35 388.85 1188.06 388.85 1188.06 364.18 1188.06 345.12"/><rect class="cls-4" x="996.35" y="388.85" width="191.71" height="36.18"/><rect class="cls-5" x="932.69" y="425.03" width="53.11" height="39.43"/><rect class="cls-4" x="932.69" y="388.85" width="53.11" height="36.18"/><rect class="cls-3" x="932.69" y="319.87" width="53.11" height="68.98"/><rect class="cls-5" x="1198.43" y="425.03" width="53.11" height="39.7"/><rect class="cls-4" x="1198.43" y="388.85" width="53.11" height="36.18"/><rect class="cls-3" x="1198.43" y="319.87" width="53.11" height="68.98"/><path class="cls-2" d="M1188.33,175.48l-.27.47v-.44h-50.19a45.28,45.28,0,0,1-13.11,26.6,46.31,46.31,0,0,1-65.11,0,45.27,45.27,0,0,1-13.1-26.6h-50.2v.31l-.25-.43L932.89,284h-.2v.33l-.07.13h.07v35.46h53.12V284.41h10.54v35.46h191.71V284.51h10.37v35.36h53.11V284.51h.27Z"/><text class="cls-1" transform="translate(306.9 532.76)">Polera blanca <tspan x="37.52" y="36">standard</tspan></text><text class="cls-1" transform="translate(1001.38 540.84)">Polerón básico</text><rect class="cls-5" x="111.33" y="527.6" width="28.9" height="28.9"/><rect class="cls-4" x="111.33" y="487.92" width="28.9" height="28.9"/><rect class="cls-3" x="111.33" y="449.4" width="28.9" height="28.9"/><rect class="cls-2" x="111.33" y="409.72" width="28.9" height="28.9"/><text class="cls-6" transform="translate(159.93 431.27)">Levis</text><text class="cls-6" transform="translate(163.02 472.55)">Zara</text><text class="cls-6" transform="translate(161.12 510.73)">H&amp;M</text><text class="cls-6" transform="translate(160.13 551.77)">Shein</text><text class="cls-7" transform="translate(123.04 92.32)">En promedio...</text></svg>