<svg id="Layer_1" data-name="Layer 1" xmlns="http://www.w3.org/2000/svg" viewBox="0 0 1491.36 808.97"><defs><style>.cls-1{font-size:43.53px;}.cls-1,.cls-9{fill:#fff;font-family:Helvetica;}.cls-2{fill:#828383;}.cls-3{fill:#575757;}.cls-4{fill:#030303;}.cls-5{fill:#252424;}.cls-6{fill:#c0bebe;}.cls-7{fill:#daf1f7;}.cls-8{fill:#b9e4f1;}.cls-9{font-size:20px;}</style></defs><text class="cls-1" transform="translate(136.9 195.62)">Shein</text><text class="cls-1" transform="translate(138.12 302.74)">H&amp;M</text><text class="cls-1" transform="translate(138.12 417.47)">Zara</text><text class="cls-1" transform="translate(138.12 527.51)">Levis</text><path class="cls-2" d="M1137.68,109.32l3.71,3.66a7.77,7.77,0,0,1-3.63,3.62,1.19,1.19,0,0,1-.53-.06,2.56,2.56,0,0,1-.75-.51c-1.88-1.54-1.88-1.54-4-.2a2.31,2.31,0,0,1-1.88.52c-4.44,2.07-9,2.89-13.85,1.59-12.82-3.39-17.93-19.23-9.39-29.4.43-.52.91-1,1.37-1.49a9.37,9.37,0,0,1,4.09,4.08,1.66,1.66,0,0,1-.06.54c-1.2,2.34-2.75,4.46-3.1,7.23a12.22,12.22,0,0,0,6.29,11.81,12.08,12.08,0,0,0,12.76-.95A13.79,13.79,0,0,1,1130,109a1.62,1.62,0,0,1,.53-.11,3.08,3.08,0,0,1,2.1,1.37c1.75,2,1.74,2,3.41,0C1136.5,109.82,1136.82,109.11,1137.68,109.32Z"/><path class="cls-3" d="M1112.5,91.17c-1.2-1.41-2.94-2.34-3.73-4.12a18.36,18.36,0,0,1,29.47,20.9c-.2.45-.37.92-.56,1.37-.71.93-1.43,1.84-2.14,2.77s-1.34.8-2.14.09c-1-.9-1.58-2.22-2.81-2.9-.33-1.13.44-1.88,1-2.69a11.25,11.25,0,0,0,.6-11.79c-2.2-4.32-6-6.36-10.68-6.52a10.32,10.32,0,0,0-6.12,1.84C1114.51,90.69,1113.71,91.54,1112.5,91.17Z"/><path class="cls-4" d="M1137.7,116.35c1.06-1.3,2-2.78,3.69-3.37,2.82,2.83,5.66,5.63,8.44,8.48,2.07,2.13,2.19,4.32.47,6.77-.93.61-1.69.11-2.31-.49-3.22-3-6.39-6.16-9.4-9.43A2.59,2.59,0,0,1,1137.7,116.35Z"/><path class="cls-5" d="M1137.7,116.35l10.18,10.32a4.36,4.36,0,0,0,2.42,1.56c-2.16,2.25-4.86,2.61-7,.64-3-2.79-5.85-5.78-8.77-8.69a.94.94,0,0,1-.23-.84,3.86,3.86,0,0,1,3-3Z"/><path class="cls-6" d="M1137.37,116.37l-3,3c-1.66-.46-2.64-1.76-3.68-3a20,20,0,0,1,1.78-1.28c.79-.45,1.35-1.82,2.16-1.44A4.85,4.85,0,0,1,1137.37,116.37Z"/><path class="cls-7" d="M1130.3,109.25c-3.5,3.59-7.74,4.43-12.39,3a11.85,11.85,0,0,1-8.78-9.78,11.72,11.72,0,0,1,3.4-11c1-.31,1.64.37,2.25,1,4.85,4.71,9.66,9.45,14.38,14.3C1129.81,107.4,1130.7,108.06,1130.3,109.25Z"/><path class="cls-8" d="M1130.3,109.25a50.63,50.63,0,0,0-5.64-6.07c-2.47-2.44-4.92-4.91-7.42-7.33-1.53-1.49-3.14-2.91-4.71-4.37l0-.31c2.17-1.64,4.39-3.14,7.22-3.48,5.29-.63,9.49,1.2,12.41,5.6s2.86,9,.19,13.59c-.5.84-1.15,1.6-1.73,2.4A1.36,1.36,0,0,0,1130.3,109.25Z"/><text class="cls-9" transform="translate(1174.14 106.91)"><tspan xml:space="preserve">=    21 puntos en índice </tspan><tspan x="32.53" y="24">de transparencia</tspan></text><path class="cls-2" d="M1068.19,305.7l4.9,5a10.42,10.42,0,0,0,4.84-4.86,1.89,1.89,0,0,0-.07-.71,4.31,4.31,0,0,0-.69-1c-2.06-2.5-2.06-2.5-.27-5.29a3.09,3.09,0,0,0,.7-2.52c2.76-5.94,3.87-12,2.13-18.54-4.54-17.16-25.75-24-39.36-12.57-.69.58-1.33,1.22-2,1.84a12.71,12.71,0,0,0,5.46,5.47,2,2,0,0,0,.73-.08c3.13-1.6,6-3.68,9.68-4.15,6-.77,13.14,2.92,15.8,8.42,2.91,6,2.35,11.63-1.27,17.09a18.18,18.18,0,0,0-1,1.71,2.37,2.37,0,0,0-.15.7c.07,1.29,1,2,1.84,2.82,2.63,2.33,2.62,2.32,0,4.57C1068.86,304.11,1067.91,304.54,1068.19,305.7Z"/><path class="cls-3" d="M1043.89,272c-1.89-1.6-3.13-3.94-5.52-5-8.31,8.84-9.33,21.88-2.46,31.39a24.56,24.56,0,0,0,30.45,8.05c.6-.27,1.22-.49,1.83-.74,1.24-1,2.46-1.92,3.7-2.86s1.08-1.8.12-2.87c-1.2-1.36-3-2.12-3.88-3.76-1.51-.45-2.52.59-3.6,1.27a15,15,0,0,1-15.78.79c-5.78-2.94-8.51-8-8.73-14.28a13.7,13.7,0,0,1,2.47-8.2C1043.25,274.68,1044.39,273.61,1043.89,272Z"/><path class="cls-4" d="M1077.6,305.72c-1.75,1.43-3.72,2.65-4.51,4.94,3.78,3.77,7.53,7.57,11.35,11.3,2.85,2.77,5.78,2.92,9.06.63.81-1.25.14-2.26-.65-3.1-4.09-4.31-8.25-8.55-12.63-12.57A3.43,3.43,0,0,0,1077.6,305.72Z"/><path class="cls-5" d="M1077.6,305.72l13.81,13.63a5.78,5.78,0,0,1,2.09,3.24c3-2.9,3.5-6.5.86-9.35-3.74-4-7.75-7.83-11.63-11.73a1.26,1.26,0,0,0-1.13-.31,5.2,5.2,0,0,0-4,4.08A3.24,3.24,0,0,1,1077.6,305.72Z"/><path class="cls-6" d="M1077.62,305.28l4-4.08c-.62-2.23-2.36-3.54-4-4.93a26.76,26.76,0,0,0-1.72,2.39c-.6,1-2.43,1.8-1.93,2.89A6.56,6.56,0,0,0,1077.62,305.28Z"/><path class="cls-7" d="M1068.09,295.81c4.81-4.68,5.94-10.36,4.05-16.58-2-6.46-6.38-10.54-13.1-11.75a15.7,15.7,0,0,0-14.73,4.55c-.42,1.36.49,2.2,1.27,3,6.31,6.49,12.65,12.94,19.13,19.25C1065.62,295.17,1066.5,296.35,1068.09,295.81Z"/><path class="cls-8" d="M1068.09,295.81a66.55,66.55,0,0,1-8.12-7.54c-3.27-3.3-6.57-6.59-9.81-9.93-2-2.06-3.9-4.2-5.85-6.31l-.42,0c-2.2,2.91-4.2,5.87-4.65,9.67-.85,7.08,1.6,12.69,7.48,16.6s12.1,3.84,18.2.26c1.13-.67,2.14-1.53,3.21-2.31A1.75,1.75,0,0,1,1068.09,295.81Z"/><path class="cls-2" d="M1001.85,305.7l4.9,5a10.42,10.42,0,0,0,4.84-4.86,2.12,2.12,0,0,0-.07-.71,4.31,4.31,0,0,0-.69-1c-2.06-2.5-2.07-2.5-.27-5.29a3.09,3.09,0,0,0,.69-2.52c2.77-5.94,3.87-12,2.14-18.54-4.55-17.16-25.75-24-39.36-12.57-.69.58-1.34,1.22-2,1.84a12.65,12.65,0,0,0,5.46,5.47,2,2,0,0,0,.73-.08c3.13-1.6,6-3.68,9.67-4.15,6.06-.77,13.15,2.92,15.81,8.42,2.9,6,2.35,11.63-1.27,17.09a16.24,16.24,0,0,0-1,1.71,2.37,2.37,0,0,0-.15.7c.07,1.29,1,2,1.84,2.82,2.62,2.33,2.61,2.32,0,4.57C1002.52,304.11,1001.57,304.54,1001.85,305.7Z"/><path class="cls-3" d="M977.55,272c-1.89-1.6-3.13-3.94-5.52-5-8.31,8.84-9.34,21.88-2.47,31.39a24.57,24.57,0,0,0,30.46,8.05c.6-.27,1.22-.49,1.83-.74,1.23-1,2.46-1.92,3.7-2.86s1.07-1.8.12-2.87c-1.21-1.36-3-2.12-3.88-3.76-1.51-.45-2.52.59-3.6,1.27a15,15,0,0,1-15.78.79c-5.78-2.94-8.52-8-8.73-14.28a13.7,13.7,0,0,1,2.47-8.2C976.91,274.68,978,273.61,977.55,272Z"/><path class="cls-4" d="M1011.25,305.72c-1.74,1.43-3.71,2.65-4.5,4.94,3.78,3.77,7.53,7.57,11.35,11.3,2.85,2.77,5.78,2.92,9.06.63.81-1.25.14-2.26-.65-3.1-4.09-4.31-8.25-8.55-12.63-12.57A3.44,3.44,0,0,0,1011.25,305.72Z"/><path class="cls-5" d="M1011.25,305.72l13.82,13.63a5.84,5.84,0,0,1,2.09,3.24c3-2.9,3.5-6.5.86-9.35-3.74-4-7.75-7.83-11.63-11.73a1.26,1.26,0,0,0-1.13-.31,5.2,5.2,0,0,0-4,4.08A3.25,3.25,0,0,1,1011.25,305.72Z"/><path class="cls-6" d="M1011.28,305.28l4-4.08c-.62-2.23-2.36-3.54-4-4.93a28.81,28.81,0,0,0-1.71,2.39c-.6,1-2.43,1.8-1.93,2.89A6.56,6.56,0,0,0,1011.28,305.28Z"/><path class="cls-7" d="M1001.75,295.81c4.81-4.68,5.94-10.36,4-16.58-2-6.46-6.38-10.54-13.1-11.75A15.7,15.7,0,0,0,978,272c-.43,1.36.49,2.2,1.27,3,6.3,6.49,12.65,12.94,19.13,19.25C999.28,295.17,1000.15,296.35,1001.75,295.81Z"/><path class="cls-8" d="M1001.75,295.81a65.83,65.83,0,0,1-8.12-7.54c-3.27-3.3-6.57-6.59-9.81-9.93-2-2.06-3.9-4.2-5.85-6.31l-.42,0c-2.2,2.91-4.2,5.87-4.65,9.67-.85,7.08,1.59,12.69,7.48,16.6s12.09,3.84,18.2.26c1.13-.67,2.14-1.53,3.21-2.31A1.75,1.75,0,0,1,1001.75,295.81Z"/><path class="cls-2" d="M935.33,305.7l4.9,5a10.42,10.42,0,0,0,4.84-4.86,1.9,1.9,0,0,0-.08-.71,4,4,0,0,0-.68-1c-2.06-2.5-2.07-2.5-.27-5.29a3.09,3.09,0,0,0,.69-2.52c2.77-5.94,3.87-12,2.14-18.54-4.55-17.16-25.75-24-39.36-12.57-.7.58-1.34,1.22-2,1.84a12.6,12.6,0,0,0,5.46,5.47,2,2,0,0,0,.73-.08c3.13-1.6,6-3.68,9.67-4.15,6.06-.77,13.15,2.92,15.81,8.42,2.9,6,2.35,11.63-1.27,17.09a16.24,16.24,0,0,0-1,1.71,2.37,2.37,0,0,0-.15.7c.07,1.29,1,2,1.84,2.82,2.62,2.33,2.61,2.32,0,4.57C936,304.11,935.05,304.54,935.33,305.7Z"/><path class="cls-3" d="M911,272c-1.89-1.6-3.13-3.94-5.52-5-8.31,8.84-9.34,21.88-2.47,31.39a24.57,24.57,0,0,0,30.46,8.05c.6-.27,1.22-.49,1.83-.74,1.23-1,2.46-1.92,3.7-2.86s1.07-1.8.12-2.87c-1.21-1.36-3-2.12-3.88-3.76-1.51-.45-2.52.59-3.6,1.27a15,15,0,0,1-15.79.79c-5.77-2.94-8.51-8-8.72-14.28a13.7,13.7,0,0,1,2.47-8.2C910.39,274.68,911.52,273.61,911,272Z"/><path class="cls-4" d="M944.73,305.72c-1.74,1.43-3.71,2.65-4.5,4.94,3.78,3.77,7.53,7.57,11.35,11.3,2.85,2.77,5.78,2.92,9.06.63.81-1.25.14-2.26-.65-3.1-4.09-4.31-8.25-8.55-12.63-12.57A3.44,3.44,0,0,0,944.73,305.72Z"/><path class="cls-5" d="M944.73,305.72l13.82,13.63a5.84,5.84,0,0,1,2.09,3.24c3-2.9,3.49-6.5.86-9.35-3.74-4-7.75-7.83-11.63-11.73a1.26,1.26,0,0,0-1.13-.31,5.2,5.2,0,0,0-4,4.08A3.25,3.25,0,0,1,944.73,305.72Z"/><path class="cls-6" d="M944.76,305.28l4-4.08c-.62-2.23-2.36-3.54-4-4.93a28.81,28.81,0,0,0-1.71,2.39c-.6,1-2.43,1.8-1.93,2.89A6.56,6.56,0,0,0,944.76,305.28Z"/><path class="cls-7" d="M935.23,295.81c4.81-4.68,5.94-10.36,4-16.58-2-6.46-6.37-10.54-13.09-11.75A15.7,15.7,0,0,0,911.45,272c-.43,1.36.49,2.2,1.27,3,6.3,6.49,12.65,12.94,19.13,19.25C932.76,295.17,933.63,296.35,935.23,295.81Z"/><path class="cls-8" d="M935.23,295.81a65.83,65.83,0,0,1-8.12-7.54c-3.27-3.3-6.57-6.59-9.81-9.93-2-2.06-3.9-4.2-5.85-6.31l-.42,0c-2.2,2.91-4.2,5.87-4.65,9.67-.85,7.08,1.59,12.69,7.48,16.6s12.09,3.84,18.2.26c1.13-.67,2.14-1.53,3.21-2.31A1.75,1.75,0,0,1,935.23,295.81Z"/><path class="cls-2" d="M868.81,305.7l4.9,5a10.46,10.46,0,0,0,4.84-4.86,1.9,1.9,0,0,0-.08-.71,4,4,0,0,0-.68-1c-2.06-2.5-2.07-2.5-.27-5.29a3.09,3.09,0,0,0,.69-2.52c2.77-5.94,3.87-12,2.14-18.54-4.55-17.16-25.75-24-39.36-12.57-.7.58-1.34,1.22-2,1.84a12.6,12.6,0,0,0,5.46,5.47,2,2,0,0,0,.73-.08c3.13-1.6,6-3.68,9.67-4.15,6.06-.77,13.15,2.92,15.81,8.42,2.9,6,2.35,11.63-1.27,17.09a16.24,16.24,0,0,0-1,1.71,2.37,2.37,0,0,0-.15.7c.07,1.29,1,2,1.84,2.82,2.62,2.33,2.61,2.32,0,4.57C869.48,304.11,868.52,304.54,868.81,305.7Z"/><path class="cls-3" d="M844.51,272c-1.89-1.6-3.13-3.94-5.52-5-8.31,8.84-9.34,21.88-2.47,31.39A24.57,24.57,0,0,0,867,306.44c.6-.27,1.22-.49,1.83-.74,1.23-1,2.46-1.92,3.7-2.86s1.07-1.8.12-2.87c-1.21-1.36-3-2.12-3.88-3.76-1.51-.45-2.52.59-3.6,1.27a15,15,0,0,1-15.79.79c-5.77-2.94-8.51-8-8.72-14.28a13.7,13.7,0,0,1,2.47-8.2C843.87,274.68,845,273.61,844.51,272Z"/><path class="cls-4" d="M878.21,305.72c-1.74,1.43-3.71,2.65-4.5,4.94,3.78,3.77,7.53,7.57,11.35,11.3,2.85,2.77,5.78,2.92,9.06.63.81-1.25.14-2.26-.65-3.1-4.09-4.31-8.25-8.55-12.63-12.57A3.44,3.44,0,0,0,878.21,305.72Z"/><path class="cls-5" d="M878.21,305.72,892,319.35a5.84,5.84,0,0,1,2.09,3.24c3-2.9,3.49-6.5.86-9.35-3.74-4-7.75-7.83-11.63-11.73a1.26,1.26,0,0,0-1.13-.31,5.2,5.2,0,0,0-4,4.08A3.25,3.25,0,0,1,878.21,305.72Z"/><path class="cls-6" d="M878.24,305.28l4-4.08c-.62-2.23-2.36-3.54-4-4.93a28.81,28.81,0,0,0-1.71,2.39c-.6,1-2.43,1.8-1.93,2.89A6.56,6.56,0,0,0,878.24,305.28Z"/><path class="cls-7" d="M868.71,295.81c4.81-4.68,5.94-10.36,4-16.58-2-6.46-6.38-10.54-13.09-11.75A15.7,15.7,0,0,0,844.93,272c-.43,1.36.49,2.2,1.27,3,6.3,6.49,12.65,12.94,19.13,19.25C866.24,295.17,867.11,296.35,868.71,295.81Z"/><path class="cls-8" d="M868.71,295.81a65.83,65.83,0,0,1-8.12-7.54c-3.27-3.3-6.57-6.59-9.81-9.93-2-2.06-3.91-4.2-5.85-6.31l-.42,0c-2.2,2.91-4.2,5.87-4.66,9.67-.84,7.08,1.6,12.69,7.49,16.6s12.09,3.84,18.2.26c1.13-.67,2.14-1.53,3.21-2.31A1.75,1.75,0,0,1,868.71,295.81Z"/><path class="cls-2" d="M535.11,305.7l4.9,5a10.42,10.42,0,0,0,4.84-4.86,1.71,1.71,0,0,0-.07-.71,4.31,4.31,0,0,0-.69-1c-2.06-2.5-2.06-2.5-.27-5.29a3.09,3.09,0,0,0,.7-2.52c2.77-5.94,3.87-12,2.13-18.54-4.54-17.16-25.75-24-39.36-12.57-.69.58-1.33,1.22-2,1.84a12.63,12.63,0,0,0,5.45,5.47,2,2,0,0,0,.73-.08c3.13-1.6,6-3.68,9.68-4.15,6.05-.77,13.14,2.92,15.81,8.42,2.9,6,2.34,11.63-1.28,17.09a18.1,18.1,0,0,0-1,1.71,2.09,2.09,0,0,0-.15.7c.06,1.29,1,2,1.83,2.82,2.63,2.33,2.62,2.32,0,4.57C535.78,304.11,534.83,304.54,535.11,305.7Z"/><path class="cls-3" d="M510.81,272c-1.89-1.6-3.12-3.94-5.52-5-8.31,8.84-9.33,21.88-2.46,31.39a24.56,24.56,0,0,0,30.45,8.05c.6-.27,1.22-.49,1.83-.74,1.24-1,2.46-1.92,3.71-2.86s1.07-1.8.11-2.87c-1.2-1.36-3-2.12-3.88-3.76-1.5-.45-2.51.59-3.6,1.27a15,15,0,0,1-15.78.79c-5.78-2.94-8.51-8-8.73-14.28a13.78,13.78,0,0,1,2.48-8.2C510.17,274.68,511.31,273.61,510.81,272Z"/><path class="cls-4" d="M544.52,305.72c-1.75,1.43-3.72,2.65-4.51,4.94,3.78,3.77,7.53,7.57,11.36,11.3,2.84,2.77,5.78,2.92,9,.63.82-1.25.14-2.26-.65-3.1-4.09-4.31-8.25-8.55-12.62-12.57A3.47,3.47,0,0,0,544.52,305.72Z"/><path class="cls-5" d="M544.52,305.72l13.81,13.63a5.73,5.73,0,0,1,2.09,3.24c3-2.9,3.5-6.5.86-9.35-3.74-4-7.74-7.83-11.63-11.73a1.25,1.25,0,0,0-1.13-.31,5.17,5.17,0,0,0-4,4.08A3.25,3.25,0,0,1,544.52,305.72Z"/><path class="cls-6" d="M544.55,305.28l4-4.08c-.62-2.23-2.35-3.54-4-4.93a24.79,24.79,0,0,0-1.71,2.39c-.6,1-2.44,1.8-1.94,2.89A6.58,6.58,0,0,0,544.55,305.28Z"/><path class="cls-7" d="M535,295.81c4.81-4.68,5.94-10.36,4-16.58-2-6.46-6.38-10.54-13.09-11.75A15.72,15.72,0,0,0,511.23,272c-.42,1.36.49,2.2,1.28,3,6.3,6.49,12.64,12.94,19.13,19.25C532.54,295.17,533.42,296.35,535,295.81Z"/><path class="cls-8" d="M535,295.81a65.74,65.74,0,0,1-8.11-7.54c-3.28-3.3-6.58-6.59-9.82-9.93-2-2.06-3.9-4.2-5.85-6.31l-.42,0c-2.19,2.91-4.2,5.87-4.65,9.67-.84,7.08,1.6,12.69,7.49,16.6s12.09,3.84,18.19.26c1.13-.67,2.14-1.53,3.21-2.31A1.75,1.75,0,0,1,535,295.81Z"/><path class="cls-2" d="M468.77,305.7l4.9,5a10.42,10.42,0,0,0,4.84-4.86,1.89,1.89,0,0,0-.07-.71,4.31,4.31,0,0,0-.69-1c-2.06-2.5-2.06-2.5-.27-5.29a3.09,3.09,0,0,0,.7-2.52c2.76-5.94,3.87-12,2.13-18.54-4.54-17.16-25.75-24-39.36-12.57-.69.58-1.33,1.22-2,1.84a12.71,12.71,0,0,0,5.46,5.47,2,2,0,0,0,.73-.08c3.13-1.6,6-3.68,9.68-4.15,6.05-.77,13.14,2.92,15.8,8.42,2.91,6,2.35,11.63-1.27,17.09a16.24,16.24,0,0,0-1,1.71,2.37,2.37,0,0,0-.15.7c.07,1.29,1,2,1.84,2.82,2.63,2.33,2.62,2.32,0,4.57C469.44,304.11,468.49,304.54,468.77,305.7Z"/><path class="cls-3" d="M444.47,272c-1.89-1.6-3.13-3.94-5.52-5-8.31,8.84-9.33,21.88-2.46,31.39a24.56,24.56,0,0,0,30.45,8.05c.6-.27,1.22-.49,1.83-.74,1.24-1,2.46-1.92,3.7-2.86s1.08-1.8.12-2.87c-1.2-1.36-3-2.12-3.88-3.76-1.51-.45-2.52.59-3.6,1.27a15,15,0,0,1-15.78.79c-5.78-2.94-8.51-8-8.73-14.28a13.7,13.7,0,0,1,2.47-8.2C443.83,274.68,445,273.61,444.47,272Z"/><path class="cls-4" d="M478.18,305.72c-1.75,1.43-3.72,2.65-4.51,4.94,3.78,3.77,7.53,7.57,11.35,11.3,2.85,2.77,5.78,2.92,9.06.63.81-1.25.14-2.26-.65-3.1-4.09-4.31-8.25-8.55-12.63-12.57A3.43,3.43,0,0,0,478.18,305.72Z"/><path class="cls-5" d="M478.18,305.72,492,319.35a5.78,5.78,0,0,1,2.09,3.24c3-2.9,3.5-6.5.86-9.35-3.74-4-7.75-7.83-11.63-11.73a1.26,1.26,0,0,0-1.13-.31,5.2,5.2,0,0,0-4,4.08C478.2,305.43,478.19,305.57,478.18,305.72Z"/><path class="cls-6" d="M478.2,305.28l4-4.08c-.62-2.23-2.36-3.54-4-4.93a26.76,26.76,0,0,0-1.72,2.39c-.6,1-2.43,1.8-1.93,2.89A6.56,6.56,0,0,0,478.2,305.28Z"/><path class="cls-7" d="M468.67,295.81c4.81-4.68,5.94-10.36,4.05-16.58-2-6.46-6.38-10.54-13.1-11.75A15.7,15.7,0,0,0,444.89,272c-.42,1.36.49,2.2,1.27,3,6.31,6.49,12.65,12.94,19.13,19.25C466.2,295.17,467.08,296.35,468.67,295.81Z"/><path class="cls-8" d="M468.67,295.81a66.55,66.55,0,0,1-8.12-7.54c-3.27-3.3-6.57-6.59-9.81-9.93-2-2.06-3.9-4.2-5.85-6.31l-.42,0c-2.2,2.91-4.2,5.87-4.65,9.67-.85,7.08,1.6,12.69,7.48,16.6s12.09,3.84,18.2.26c1.13-.67,2.14-1.53,3.21-2.31A1.75,1.75,0,0,1,468.67,295.81Z"/><path class="cls-2" d="M402.25,305.7l4.9,5A10.42,10.42,0,0,0,412,305.8a2.12,2.12,0,0,0-.07-.71,4.31,4.31,0,0,0-.69-1c-2.06-2.5-2.06-2.5-.27-5.29a3.13,3.13,0,0,0,.7-2.52c2.76-5.94,3.87-12,2.13-18.54-4.54-17.16-25.75-24-39.36-12.57-.69.58-1.33,1.22-2,1.84a12.71,12.71,0,0,0,5.46,5.47,2,2,0,0,0,.73-.08c3.13-1.6,6-3.68,9.68-4.15,6.05-.77,13.14,2.92,15.8,8.42,2.91,6,2.35,11.63-1.27,17.09a16.24,16.24,0,0,0-1,1.71,2.37,2.37,0,0,0-.15.7c.07,1.29,1,2,1.84,2.82,2.63,2.33,2.61,2.32.05,4.57C402.92,304.11,402,304.54,402.25,305.7Z"/><path class="cls-3" d="M378,272c-1.89-1.6-3.13-3.94-5.52-5-8.31,8.84-9.33,21.88-2.46,31.39a24.56,24.56,0,0,0,30.45,8.05c.6-.27,1.22-.49,1.83-.74,1.24-1,2.46-1.92,3.7-2.86s1.08-1.8.12-2.87c-1.2-1.36-3-2.12-3.88-3.76-1.51-.45-2.52.59-3.6,1.27a15,15,0,0,1-15.78.79c-5.78-2.94-8.52-8-8.73-14.28a13.7,13.7,0,0,1,2.47-8.2C377.31,274.68,378.45,273.61,378,272Z"/><path class="cls-4" d="M411.65,305.72c-1.74,1.43-3.71,2.65-4.5,4.94,3.78,3.77,7.53,7.57,11.35,11.3,2.85,2.77,5.78,2.92,9.06.63.81-1.25.14-2.26-.65-3.1-4.09-4.31-8.25-8.55-12.63-12.57A3.44,3.44,0,0,0,411.65,305.72Z"/><path class="cls-5" d="M411.65,305.72l13.82,13.63a5.78,5.78,0,0,1,2.09,3.24c3-2.9,3.5-6.5.86-9.35-3.74-4-7.75-7.83-11.63-11.73a1.26,1.26,0,0,0-1.13-.31,5.2,5.2,0,0,0-4,4.08A3.25,3.25,0,0,1,411.65,305.72Z"/><path class="cls-6" d="M411.68,305.28l4-4.08c-.62-2.23-2.36-3.54-4-4.93a26.76,26.76,0,0,0-1.72,2.39c-.6,1-2.43,1.8-1.93,2.89A6.56,6.56,0,0,0,411.68,305.28Z"/><path class="cls-7" d="M402.15,295.81c4.81-4.68,5.94-10.36,4.05-16.58-2-6.46-6.38-10.54-13.1-11.75A15.7,15.7,0,0,0,378.37,272c-.42,1.36.49,2.2,1.27,3,6.31,6.49,12.65,12.94,19.13,19.25C399.68,295.17,400.56,296.35,402.15,295.81Z"/><path class="cls-8" d="M402.15,295.81a66.55,66.55,0,0,1-8.12-7.54c-3.27-3.3-6.57-6.59-9.81-9.93-2-2.06-3.9-4.2-5.85-6.31l-.42,0c-2.2,2.91-4.2,5.87-4.65,9.67-.85,7.08,1.59,12.69,7.48,16.6s12.09,3.84,18.2.26c1.13-.67,2.14-1.53,3.21-2.31A1.75,1.75,0,0,1,402.15,295.81Z"/><path class="cls-2" d="M335.73,305.7l4.9,5a10.42,10.42,0,0,0,4.84-4.86,2.12,2.12,0,0,0-.07-.71,4.31,4.31,0,0,0-.69-1c-2.06-2.5-2.06-2.5-.27-5.29a3.13,3.13,0,0,0,.7-2.52c2.76-5.94,3.87-12,2.13-18.54-4.54-17.16-25.75-24-39.36-12.57-.69.58-1.33,1.22-2,1.84a12.71,12.71,0,0,0,5.46,5.47,2,2,0,0,0,.73-.08c3.13-1.6,6-3.68,9.67-4.15,6.06-.77,13.15,2.92,15.81,8.42,2.91,6,2.35,11.63-1.27,17.09a16.24,16.24,0,0,0-1,1.71,2.37,2.37,0,0,0-.15.7c.07,1.29,1,2,1.84,2.82,2.63,2.33,2.61,2.32.05,4.57C336.4,304.11,335.45,304.54,335.73,305.7Z"/><path class="cls-3" d="M311.43,272c-1.89-1.6-3.13-3.94-5.52-5-8.31,8.84-9.33,21.88-2.46,31.39a24.56,24.56,0,0,0,30.45,8.05c.6-.27,1.22-.49,1.83-.74,1.23-1,2.46-1.92,3.7-2.86s1.08-1.8.12-2.87c-1.2-1.36-3-2.12-3.88-3.76-1.51-.45-2.52.59-3.6,1.27a15,15,0,0,1-15.78.79c-5.78-2.94-8.52-8-8.73-14.28a13.7,13.7,0,0,1,2.47-8.2C310.79,274.68,311.93,273.61,311.43,272Z"/><path class="cls-4" d="M345.13,305.72c-1.74,1.43-3.71,2.65-4.5,4.94,3.78,3.77,7.53,7.57,11.35,11.3,2.85,2.77,5.78,2.92,9.06.63.81-1.25.14-2.26-.65-3.1-4.09-4.31-8.25-8.55-12.63-12.57A3.44,3.44,0,0,0,345.13,305.72Z"/><path class="cls-5" d="M345.13,305.72,359,319.35a5.78,5.78,0,0,1,2.09,3.24c3-2.9,3.5-6.5.86-9.35-3.74-4-7.75-7.83-11.63-11.73a1.26,1.26,0,0,0-1.13-.31,5.2,5.2,0,0,0-4,4.08A3.25,3.25,0,0,1,345.13,305.72Z"/><path class="cls-6" d="M345.16,305.28l4-4.08c-.62-2.23-2.36-3.54-4-4.93a26.76,26.76,0,0,0-1.72,2.39c-.6,1-2.43,1.8-1.93,2.89A6.56,6.56,0,0,0,345.16,305.28Z"/><path class="cls-7" d="M335.63,295.81c4.81-4.68,5.94-10.36,4.05-16.58-2-6.46-6.38-10.54-13.1-11.75A15.7,15.7,0,0,0,311.85,272c-.42,1.36.49,2.2,1.27,3,6.31,6.49,12.65,12.94,19.13,19.25C333.16,295.17,334,296.35,335.63,295.81Z"/><path class="cls-8" d="M335.63,295.81a66.55,66.55,0,0,1-8.12-7.54c-3.27-3.3-6.57-6.59-9.81-9.93-2-2.06-3.9-4.2-5.85-6.31l-.42,0c-2.2,2.91-4.2,5.87-4.65,9.67-.85,7.08,1.59,12.69,7.48,16.6s12.09,3.84,18.2.26c1.13-.67,2.14-1.53,3.21-2.31A1.75,1.75,0,0,1,335.63,295.81Z"/><path class="cls-2" d="M802.29,305.7l4.9,5A10.46,10.46,0,0,0,812,305.8a1.9,1.9,0,0,0-.08-.71,4,4,0,0,0-.68-1c-2.06-2.5-2.07-2.5-.27-5.29a3.12,3.12,0,0,0,.69-2.52c2.77-5.94,3.87-12,2.14-18.54-4.55-17.16-25.75-24-39.36-12.57-.7.58-1.34,1.22-2,1.84a12.6,12.6,0,0,0,5.46,5.47,2,2,0,0,0,.73-.08c3.13-1.6,6-3.68,9.67-4.15,6.06-.77,13.15,2.92,15.81,8.42,2.9,6,2.35,11.63-1.27,17.09a16.24,16.24,0,0,0-1,1.71,2.37,2.37,0,0,0-.15.7c.07,1.29,1,2,1.84,2.82,2.62,2.33,2.61,2.32.05,4.57C803,304.11,802,304.54,802.29,305.7Z"/><path class="cls-3" d="M778,272c-1.89-1.6-3.13-3.94-5.52-5-8.31,8.84-9.34,21.88-2.47,31.39a24.57,24.57,0,0,0,30.46,8.05c.6-.27,1.22-.49,1.83-.74,1.23-1,2.46-1.92,3.7-2.86s1.07-1.8.12-2.87c-1.21-1.36-3-2.12-3.88-3.76-1.51-.45-2.52.59-3.6,1.27a15,15,0,0,1-15.79.79c-5.77-2.94-8.51-8-8.72-14.28a13.7,13.7,0,0,1,2.47-8.2C777.35,274.68,778.48,273.61,778,272Z"/><path class="cls-4" d="M811.69,305.72c-1.74,1.43-3.71,2.65-4.5,4.94,3.78,3.77,7.53,7.57,11.35,11.3,2.85,2.77,5.78,2.92,9.06.63.81-1.25.14-2.26-.65-3.1-4.09-4.31-8.25-8.55-12.63-12.57A3.44,3.44,0,0,0,811.69,305.72Z"/><path class="cls-5" d="M811.69,305.72l13.82,13.63a5.84,5.84,0,0,1,2.09,3.24c3-2.9,3.49-6.5.86-9.35-3.74-4-7.75-7.83-11.63-11.73a1.26,1.26,0,0,0-1.13-.31,5.2,5.2,0,0,0-4,4.08A3.25,3.25,0,0,1,811.69,305.72Z"/><path class="cls-6" d="M811.72,305.28l4-4.08c-.62-2.23-2.36-3.54-4-4.93a28.81,28.81,0,0,0-1.71,2.39c-.6,1-2.43,1.8-1.93,2.89A6.56,6.56,0,0,0,811.72,305.28Z"/><path class="cls-7" d="M802.19,295.81c4.81-4.68,5.94-10.36,4-16.58-2-6.46-6.38-10.54-13.09-11.75A15.7,15.7,0,0,0,778.41,272c-.43,1.36.49,2.2,1.27,3,6.3,6.49,12.65,12.94,19.13,19.25C799.72,295.17,800.59,296.35,802.19,295.81Z"/><path class="cls-8" d="M802.19,295.81a65.83,65.83,0,0,1-8.12-7.54c-3.27-3.3-6.57-6.59-9.81-9.93-2-2.06-3.91-4.2-5.85-6.31l-.42,0c-2.2,2.91-4.2,5.87-4.66,9.67-.84,7.08,1.6,12.69,7.49,16.6s12.09,3.84,18.2.26c1.13-.67,2.14-1.53,3.21-2.31A1.75,1.75,0,0,1,802.19,295.81Z"/><path class="cls-2" d="M735.77,305.7l4.9,5a10.51,10.51,0,0,0,4.84-4.86,1.9,1.9,0,0,0-.08-.71,4,4,0,0,0-.68-1c-2.07-2.5-2.07-2.5-.27-5.29a3.12,3.12,0,0,0,.69-2.52c2.77-5.94,3.87-12,2.14-18.54-4.55-17.16-25.75-24-39.37-12.57-.69.58-1.33,1.22-2,1.84a12.6,12.6,0,0,0,5.46,5.47,2,2,0,0,0,.73-.08c3.13-1.6,6-3.68,9.67-4.15,6.06-.77,13.15,2.92,15.81,8.42,2.9,6,2.35,11.63-1.27,17.09a16.24,16.24,0,0,0-1,1.71,2.37,2.37,0,0,0-.15.7c.07,1.29,1,2,1.84,2.82,2.62,2.33,2.61,2.32.05,4.57C736.44,304.11,735.48,304.54,735.77,305.7Z"/><path class="cls-3" d="M711.47,272c-1.89-1.6-3.13-3.94-5.52-5-8.31,8.84-9.34,21.88-2.47,31.39a24.57,24.57,0,0,0,30.46,8.05c.6-.27,1.22-.49,1.83-.74,1.23-1,2.46-1.92,3.7-2.86s1.07-1.8.12-2.87c-1.21-1.36-3-2.12-3.88-3.76-1.51-.45-2.52.59-3.6,1.27a15,15,0,0,1-15.79.79c-5.77-2.94-8.51-8-8.72-14.28a13.7,13.7,0,0,1,2.47-8.2C710.83,274.68,712,273.61,711.47,272Z"/><path class="cls-4" d="M745.17,305.72c-1.74,1.43-3.71,2.65-4.5,4.94,3.78,3.77,7.53,7.57,11.35,11.3,2.85,2.77,5.78,2.92,9.06.63.81-1.25.14-2.26-.65-3.1-4.09-4.31-8.25-8.55-12.63-12.57A3.44,3.44,0,0,0,745.17,305.72Z"/><path class="cls-5" d="M745.17,305.72,759,319.35a5.84,5.84,0,0,1,2.09,3.24c3-2.9,3.49-6.5.86-9.35-3.74-4-7.75-7.83-11.63-11.73a1.26,1.26,0,0,0-1.13-.31,5.2,5.2,0,0,0-4,4.08A3.25,3.25,0,0,1,745.17,305.72Z"/><path class="cls-6" d="M745.2,305.28l4-4.08c-.62-2.23-2.36-3.54-4-4.93a28.81,28.81,0,0,0-1.71,2.39c-.6,1-2.43,1.8-1.93,2.89A6.53,6.53,0,0,0,745.2,305.28Z"/><path class="cls-7" d="M735.67,295.81c4.81-4.68,5.94-10.36,4-16.58-2-6.46-6.38-10.54-13.09-11.75A15.7,15.7,0,0,0,711.89,272c-.43,1.36.49,2.2,1.27,3,6.3,6.49,12.65,12.94,19.13,19.25C733.19,295.17,734.07,296.35,735.67,295.81Z"/><path class="cls-8" d="M735.67,295.81a65.12,65.12,0,0,1-8.12-7.54c-3.28-3.3-6.57-6.59-9.81-9.93-2-2.06-3.91-4.2-5.85-6.31l-.42,0c-2.2,2.91-4.2,5.87-4.66,9.67-.84,7.08,1.6,12.69,7.49,16.6s12.09,3.84,18.19.26c1.14-.67,2.15-1.53,3.22-2.31A1.75,1.75,0,0,1,735.67,295.81Z"/><path class="cls-2" d="M669.25,305.7l4.9,5A10.51,10.51,0,0,0,679,305.8a1.9,1.9,0,0,0-.08-.71,4,4,0,0,0-.68-1c-2.07-2.5-2.07-2.5-.27-5.29a3.12,3.12,0,0,0,.69-2.52c2.77-5.94,3.87-12,2.14-18.54-4.55-17.16-25.75-24-39.37-12.57-.69.58-1.33,1.22-2,1.84a12.6,12.6,0,0,0,5.46,5.47,2,2,0,0,0,.73-.08c3.12-1.6,6-3.68,9.67-4.15,6.05-.77,13.15,2.92,15.81,8.42,2.9,6,2.35,11.63-1.27,17.09a16.24,16.24,0,0,0-1,1.71,2.37,2.37,0,0,0-.15.7c.07,1.29,1,2,1.84,2.82,2.62,2.33,2.61,2.32.05,4.57C669.92,304.11,669,304.54,669.25,305.7Z"/><path class="cls-3" d="M645,272c-1.89-1.6-3.13-3.94-5.52-5-8.31,8.84-9.34,21.88-2.47,31.39a24.57,24.57,0,0,0,30.46,8.05c.6-.27,1.22-.49,1.83-.74,1.23-1,2.46-1.92,3.7-2.86s1.07-1.8.12-2.87c-1.21-1.36-3-2.12-3.88-3.76-1.51-.45-2.52.59-3.6,1.27a15,15,0,0,1-15.79.79c-5.77-2.94-8.51-8-8.72-14.28a13.7,13.7,0,0,1,2.47-8.2C644.31,274.68,645.44,273.61,645,272Z"/><path class="cls-4" d="M678.65,305.72c-1.74,1.43-3.72,2.65-4.5,4.94,3.78,3.77,7.53,7.57,11.35,11.3,2.85,2.77,5.78,2.92,9.06.63.81-1.25.14-2.26-.65-3.1-4.09-4.31-8.25-8.55-12.63-12.57A3.44,3.44,0,0,0,678.65,305.72Z"/><path class="cls-5" d="M678.65,305.72l13.82,13.63a5.84,5.84,0,0,1,2.09,3.24c3-2.9,3.49-6.5.86-9.35-3.74-4-7.75-7.83-11.63-11.73a1.26,1.26,0,0,0-1.13-.31,5.2,5.2,0,0,0-4,4.08A3.25,3.25,0,0,1,678.65,305.72Z"/><path class="cls-6" d="M678.68,305.28l4-4.08c-.62-2.23-2.36-3.54-4-4.93a28.81,28.81,0,0,0-1.71,2.39c-.6,1-2.43,1.8-1.93,2.89A6.53,6.53,0,0,0,678.68,305.28Z"/><path class="cls-7" d="M669.15,295.81c4.81-4.68,5.93-10.36,4-16.58-2-6.46-6.38-10.54-13.09-11.75A15.7,15.7,0,0,0,645.37,272c-.43,1.36.49,2.2,1.27,3,6.3,6.49,12.65,12.94,19.13,19.25C666.67,295.17,667.55,296.35,669.15,295.81Z"/><path class="cls-8" d="M669.15,295.81a65.12,65.12,0,0,1-8.12-7.54c-3.28-3.3-6.57-6.59-9.81-9.93-2-2.06-3.91-4.2-5.85-6.31l-.42,0c-2.2,2.91-4.2,5.87-4.66,9.67-.84,7.08,1.6,12.69,7.49,16.6s12.09,3.84,18.19.26c1.14-.67,2.15-1.53,3.22-2.31A1.75,1.75,0,0,1,669.15,295.81Z"/><path class="cls-2" d="M602.73,305.7l4.9,5a10.51,10.51,0,0,0,4.84-4.86,1.9,1.9,0,0,0-.08-.71,4,4,0,0,0-.68-1c-2.07-2.5-2.07-2.5-.28-5.29a3.09,3.09,0,0,0,.7-2.52c2.77-5.94,3.87-12,2.14-18.54-4.55-17.16-25.75-24-39.37-12.57-.69.58-1.33,1.22-2,1.84a12.6,12.6,0,0,0,5.46,5.47,2,2,0,0,0,.73-.08c3.12-1.6,6-3.68,9.67-4.15,6.05-.77,13.15,2.92,15.81,8.42,2.9,6,2.35,11.63-1.27,17.09a16.24,16.24,0,0,0-1,1.71,2.37,2.37,0,0,0-.15.7c.07,1.29,1,2,1.83,2.82,2.63,2.33,2.62,2.32.06,4.57C603.4,304.11,602.44,304.54,602.73,305.7Z"/><path class="cls-3" d="M578.43,272c-1.89-1.6-3.13-3.94-5.52-5-8.31,8.84-9.34,21.88-2.47,31.39a24.57,24.57,0,0,0,30.46,8.05c.6-.27,1.22-.49,1.83-.74,1.23-1,2.46-1.92,3.7-2.86s1.07-1.8.12-2.87c-1.21-1.36-3-2.12-3.88-3.76-1.51-.45-2.52.59-3.6,1.27a15,15,0,0,1-15.79.79c-5.77-2.94-8.51-8-8.72-14.28a13.7,13.7,0,0,1,2.47-8.2C577.79,274.68,578.92,273.61,578.43,272Z"/><path class="cls-4" d="M612.13,305.72c-1.74,1.43-3.72,2.65-4.5,4.94,3.78,3.77,7.53,7.57,11.35,11.3,2.85,2.77,5.78,2.92,9.06.63.81-1.25.14-2.26-.66-3.1-4.08-4.31-8.24-8.55-12.62-12.57A3.44,3.44,0,0,0,612.13,305.72Z"/><path class="cls-5" d="M612.13,305.72,626,319.35a5.84,5.84,0,0,1,2.09,3.24c3-2.9,3.49-6.5.86-9.35-3.74-4-7.75-7.83-11.63-11.73a1.26,1.26,0,0,0-1.13-.31,5.2,5.2,0,0,0-4,4.08A3.25,3.25,0,0,1,612.13,305.72Z"/><path class="cls-6" d="M612.16,305.28l4-4.08c-.62-2.23-2.36-3.54-4-4.93a28.81,28.81,0,0,0-1.71,2.39c-.6,1-2.44,1.8-1.93,2.89A6.53,6.53,0,0,0,612.16,305.28Z"/><path class="cls-7" d="M602.63,295.81c4.81-4.68,5.93-10.36,4-16.58-2-6.46-6.38-10.54-13.09-11.75A15.7,15.7,0,0,0,578.85,272c-.43,1.36.49,2.2,1.27,3,6.3,6.49,12.65,12.94,19.13,19.25C600.15,295.17,601,296.35,602.63,295.81Z"/><path class="cls-8" d="M602.63,295.81a65.12,65.12,0,0,1-8.12-7.54c-3.28-3.3-6.57-6.59-9.81-9.93-2-2.06-3.91-4.2-5.85-6.31l-.42,0c-2.2,2.91-4.2,5.87-4.66,9.67-.84,7.08,1.6,12.69,7.49,16.6s12.09,3.84,18.19.26c1.14-.67,2.15-1.53,3.22-2.31A1.75,1.75,0,0,1,602.63,295.81Z"/><path class="cls-2" d="M345.08,187.92l5,4.9a10.46,10.46,0,0,1-4.87,4.83,1.66,1.66,0,0,1-.7-.07,3.49,3.49,0,0,1-1-.69c-2.51-2.06-2.51-2.06-5.3-.27a3.07,3.07,0,0,1-2.52.7c-5.94,2.77-12,3.87-18.53,2.14-17.17-4.55-24-25.76-12.57-39.37.58-.69,1.22-1.33,1.83-2a12.5,12.5,0,0,1,5.47,5.46,2.24,2.24,0,0,1-.07.73c-1.6,3.12-3.69,6-4.16,9.67-.76,6,2.93,13.14,8.43,15.81,6,2.9,11.62,2.34,17.08-1.27a16.24,16.24,0,0,1,1.71-1,2.15,2.15,0,0,1,.71-.15c1.29.07,2,1,2.81,1.83,2.34,2.63,2.33,2.62,4.57,0C343.5,188.59,343.92,187.63,345.08,187.92Z"/><path class="cls-3" d="M311.38,163.62c-1.61-1.9-3.94-3.13-5-5.52,8.85-8.31,21.88-9.34,31.39-2.47a24.55,24.55,0,0,1,8.06,30.45c-.27.61-.5,1.22-.75,1.84-.95,1.23-1.92,2.46-2.86,3.7s-1.8,1.07-2.87.12c-1.35-1.21-2.11-3-3.76-3.89-.44-1.5.59-2.51,1.28-3.59a15.07,15.07,0,0,0,.79-15.79c-3-5.77-8-8.51-14.29-8.72a13.72,13.72,0,0,0-8.2,2.47C314.06,163,313,164.11,311.38,163.62Z"/><path class="cls-4" d="M345.1,197.32c1.43-1.74,2.65-3.72,4.95-4.5,3.76,3.78,7.57,7.53,11.29,11.35,2.77,2.84,2.93,5.78.63,9.05-1.25.82-2.26.15-3.1-.65-4.31-4.09-8.55-8.24-12.57-12.62A3.47,3.47,0,0,1,345.1,197.32Z"/><path class="cls-5" d="M345.1,197.32l13.63,13.82a5.8,5.8,0,0,0,3.24,2.08c-2.89,3-6.5,3.5-9.34.87-4-3.75-7.83-7.75-11.74-11.64a1.26,1.26,0,0,1-.31-1.12,5.21,5.21,0,0,1,4.08-4A3.15,3.15,0,0,0,345.1,197.32Z"/><path class="cls-6" d="M344.66,197.35l-4.08,4c-2.22-.62-3.54-2.36-4.93-4a27.54,27.54,0,0,1,2.39-1.71c1-.6,1.8-2.44,2.89-1.93A6.53,6.53,0,0,1,344.66,197.35Z"/><path class="cls-7" d="M335.2,187.82c-4.69,4.81-10.37,5.93-16.59,4-6.46-2-10.54-6.38-11.75-13.09A15.68,15.68,0,0,1,311.42,164c1.35-.43,2.19.49,3,1.27,6.49,6.3,12.94,12.64,19.25,19.13C334.55,185.34,335.74,186.22,335.2,187.82Z"/><path class="cls-8" d="M335.2,187.82a66,66,0,0,0-7.55-8.12c-3.3-3.28-6.58-6.57-9.92-9.81-2.06-2-4.21-3.91-6.31-5.85a3,3,0,0,1,0-.42c2.9-2.2,5.86-4.21,9.66-4.66,7.08-.84,12.7,1.6,16.61,7.49s3.83,12.09.25,18.19a36.2,36.2,0,0,1-2.31,3.21A1.71,1.71,0,0,0,335.2,187.82Z"/><path class="cls-2" d="M868.81,419.86l4.9,5a10.48,10.48,0,0,0,4.84-4.87,1.84,1.84,0,0,0-.08-.7,3.66,3.66,0,0,0-.68-1c-2.06-2.51-2.07-2.51-.27-5.3a3.08,3.08,0,0,0,.69-2.52c2.77-5.94,3.87-12,2.14-18.53-4.55-17.17-25.75-24-39.36-12.57-.7.58-1.34,1.22-2,1.83a12.5,12.5,0,0,0,5.46,5.47,2.24,2.24,0,0,0,.73-.07c3.13-1.6,6-3.69,9.67-4.16,6.06-.76,13.15,2.93,15.81,8.43,2.9,6,2.35,11.62-1.27,17.08a16.24,16.24,0,0,0-1,1.71,2.43,2.43,0,0,0-.15.71c.07,1.29,1,2,1.84,2.81,2.62,2.34,2.61,2.33,0,4.57C869.48,418.28,868.52,418.7,868.81,419.86Z"/><path class="cls-3" d="M844.51,386.15c-1.89-1.6-3.13-3.94-5.52-5-8.31,8.85-9.34,21.88-2.47,31.39A24.56,24.56,0,0,0,867,420.61c.6-.27,1.22-.5,1.83-.75,1.23-.95,2.46-1.92,3.7-2.86s1.07-1.8.12-2.87c-1.21-1.35-3-2.11-3.88-3.76-1.51-.45-2.52.59-3.6,1.28a15.07,15.07,0,0,1-15.79.79c-5.77-2.95-8.51-8-8.72-14.29a13.72,13.72,0,0,1,2.47-8.2C843.87,388.84,845,387.77,844.51,386.15Z"/><path class="cls-4" d="M878.21,419.88c-1.74,1.43-3.71,2.65-4.5,4.95,3.78,3.76,7.53,7.56,11.35,11.29,2.85,2.77,5.78,2.93,9.06.63.81-1.25.14-2.26-.65-3.1-4.09-4.31-8.25-8.55-12.63-12.57A3.47,3.47,0,0,0,878.21,419.88Z"/><path class="cls-5" d="M878.21,419.88,892,433.51a5.87,5.87,0,0,1,2.09,3.24c3-2.89,3.49-6.5.86-9.34-3.74-4-7.75-7.83-11.63-11.74a1.29,1.29,0,0,0-1.13-.31,5.21,5.21,0,0,0-4,4.08A3.25,3.25,0,0,1,878.21,419.88Z"/><path class="cls-6" d="M878.24,419.44l4-4.08c-.62-2.22-2.36-3.54-4-4.93-.57.79-1.22,1.55-1.71,2.39-.6,1.05-2.43,1.8-1.93,2.89A6.56,6.56,0,0,0,878.24,419.44Z"/><path class="cls-7" d="M868.71,410c4.81-4.69,5.94-10.37,4-16.59-2-6.46-6.38-10.54-13.09-11.75a15.68,15.68,0,0,0-14.73,4.56c-.43,1.35.49,2.19,1.27,3,6.3,6.49,12.65,12.94,19.13,19.25C866.24,409.33,867.11,410.52,868.71,410Z"/><path class="cls-8" d="M868.71,410a66.69,66.69,0,0,1-8.12-7.55c-3.27-3.3-6.57-6.59-9.81-9.93-2-2.05-3.91-4.2-5.85-6.3l-.42-.05c-2.2,2.91-4.2,5.87-4.66,9.67-.84,7.08,1.6,12.69,7.49,16.6s12.09,3.84,18.2.26a39.39,39.39,0,0,0,3.21-2.31A1.72,1.72,0,0,1,868.71,410Z"/><path class="cls-2" d="M802.47,419.86l4.9,5A10.46,10.46,0,0,0,812.2,420a1.66,1.66,0,0,0-.07-.7,3.49,3.49,0,0,0-.69-1c-2.06-2.51-2.06-2.51-.27-5.3a3.08,3.08,0,0,0,.7-2.52c2.77-5.94,3.87-12,2.14-18.53-4.55-17.17-25.76-24-39.37-12.57-.69.58-1.33,1.22-2,1.83a12.5,12.5,0,0,0,5.46,5.47,2.27,2.27,0,0,0,.73-.07c3.12-1.6,6-3.69,9.67-4.16,6-.76,13.14,2.93,15.81,8.43,2.9,6,2.34,11.62-1.28,17.08a18.1,18.1,0,0,0-1,1.71,2.15,2.15,0,0,0-.15.71c.07,1.29,1,2,1.83,2.81,2.63,2.34,2.62,2.33,0,4.57C803.14,418.28,802.18,418.7,802.47,419.86Z"/><path class="cls-3" d="M778.17,386.15c-1.9-1.6-3.13-3.94-5.52-5-8.32,8.85-9.34,21.88-2.47,31.39a24.55,24.55,0,0,0,30.45,8.06c.61-.27,1.22-.5,1.84-.75,1.23-.95,2.46-1.92,3.7-2.86s1.07-1.8.12-2.87c-1.21-1.35-3-2.11-3.89-3.76-1.5-.45-2.51.59-3.59,1.28a15.07,15.07,0,0,1-15.79.79c-5.77-2.95-8.51-8-8.72-14.29a13.72,13.72,0,0,1,2.47-8.2C777.53,388.84,778.66,387.77,778.17,386.15Z"/><path class="cls-4" d="M811.87,419.88c-1.74,1.43-3.72,2.65-4.5,4.95,3.78,3.76,7.53,7.56,11.35,11.29,2.84,2.77,5.78,2.93,9,.63.82-1.25.15-2.26-.65-3.1-4.09-4.31-8.24-8.55-12.62-12.57A3.47,3.47,0,0,0,811.87,419.88Z"/><path class="cls-5" d="M811.87,419.88l13.82,13.63a5.8,5.8,0,0,1,2.08,3.24c3-2.89,3.5-6.5.87-9.34-3.75-4-7.75-7.83-11.64-11.74a1.26,1.26,0,0,0-1.12-.31,5.21,5.21,0,0,0-4,4.08A3.25,3.25,0,0,1,811.87,419.88Z"/><path class="cls-6" d="M811.9,419.44l4-4.08c-.62-2.22-2.36-3.54-4-4.93a26.09,26.09,0,0,0-1.71,2.39c-.6,1.05-2.44,1.8-1.93,2.89A6.53,6.53,0,0,0,811.9,419.44Z"/><path class="cls-7" d="M802.37,410c4.81-4.69,5.93-10.37,4-16.59-2-6.46-6.38-10.54-13.09-11.75a15.71,15.71,0,0,0-14.74,4.56c-.42,1.35.5,2.19,1.28,3,6.3,6.49,12.64,12.94,19.13,19.25C799.89,409.33,800.77,410.52,802.37,410Z"/><path class="cls-8" d="M802.37,410a66,66,0,0,1-8.12-7.55c-3.28-3.3-6.57-6.59-9.81-9.93-2-2.05-3.91-4.2-5.85-6.3l-.42-.05c-2.2,2.91-4.21,5.87-4.66,9.67-.84,7.08,1.6,12.69,7.49,16.6s12.09,3.84,18.19.26a37.73,37.73,0,0,0,3.21-2.31A1.71,1.71,0,0,1,802.37,410Z"/><path class="cls-2" d="M736,419.86l4.9,5a10.46,10.46,0,0,0,4.83-4.87,1.66,1.66,0,0,0-.07-.7,3.49,3.49,0,0,0-.69-1c-2.06-2.51-2.06-2.51-.27-5.3a3.08,3.08,0,0,0,.7-2.52c2.77-5.94,3.87-12,2.14-18.53-4.55-17.17-25.76-24-39.37-12.57-.69.58-1.33,1.22-2,1.83a12.5,12.5,0,0,0,5.46,5.47,2.27,2.27,0,0,0,.73-.07c3.12-1.6,6-3.69,9.67-4.16,6-.76,13.14,2.93,15.81,8.43,2.9,6,2.34,11.62-1.28,17.08a18.1,18.1,0,0,0-1,1.71,2.15,2.15,0,0,0-.15.71c.07,1.29,1,2,1.83,2.81,2.63,2.34,2.62,2.33,0,4.57C736.62,418.28,735.66,418.7,736,419.86Z"/><path class="cls-3" d="M711.65,386.15c-1.9-1.6-3.13-3.94-5.52-5-8.32,8.85-9.34,21.88-2.47,31.39a24.55,24.55,0,0,0,30.45,8.06c.61-.27,1.22-.5,1.84-.75,1.23-.95,2.46-1.92,3.7-2.86s1.07-1.8.12-2.87c-1.21-1.35-3-2.11-3.89-3.76-1.5-.45-2.51.59-3.59,1.28a15.07,15.07,0,0,1-15.79.79c-5.78-2.95-8.51-8-8.72-14.29a13.72,13.72,0,0,1,2.47-8.2C711,388.84,712.14,387.77,711.65,386.15Z"/><path class="cls-4" d="M745.35,419.88c-1.75,1.43-3.72,2.65-4.5,4.95,3.78,3.76,7.53,7.56,11.35,11.29,2.84,2.77,5.78,2.93,9,.63.82-1.25.15-2.26-.65-3.1-4.09-4.31-8.25-8.55-12.62-12.57A3.47,3.47,0,0,0,745.35,419.88Z"/><path class="cls-5" d="M745.35,419.88l13.82,13.63a5.8,5.8,0,0,1,2.08,3.24c3-2.89,3.5-6.5.87-9.34-3.75-4-7.75-7.83-11.64-11.74a1.26,1.26,0,0,0-1.12-.31,5.21,5.21,0,0,0-4,4.08A3.25,3.25,0,0,1,745.35,419.88Z"/><path class="cls-6" d="M745.38,419.44l4-4.08c-.61-2.22-2.35-3.54-4-4.93a26.09,26.09,0,0,0-1.71,2.39c-.6,1.05-2.44,1.8-1.93,2.89A6.53,6.53,0,0,0,745.38,419.44Z"/><path class="cls-7" d="M735.85,410c4.81-4.69,5.93-10.37,4-16.59-2-6.46-6.38-10.54-13.09-11.75a15.71,15.71,0,0,0-14.74,4.56c-.42,1.35.5,2.19,1.28,3,6.3,6.49,12.64,12.94,19.13,19.25C733.37,409.33,734.25,410.52,735.85,410Z"/><path class="cls-8" d="M735.85,410a66,66,0,0,1-8.12-7.55c-3.28-3.3-6.57-6.59-9.81-9.93-2-2.05-3.91-4.2-5.86-6.3l-.41-.05c-2.2,2.91-4.21,5.87-4.66,9.67-.84,7.08,1.6,12.69,7.49,16.6s12.09,3.84,18.19.26a37.73,37.73,0,0,0,3.21-2.31A1.71,1.71,0,0,1,735.85,410Z"/><path class="cls-2" d="M669.43,419.86l4.89,5a10.44,10.44,0,0,0,4.84-4.87,1.66,1.66,0,0,0-.07-.7,3.93,3.93,0,0,0-.69-1c-2.06-2.51-2.06-2.51-.27-5.3a3.08,3.08,0,0,0,.7-2.52c2.77-5.94,3.87-12,2.14-18.53-4.55-17.17-25.76-24-39.37-12.57-.69.58-1.33,1.22-2,1.83a12.5,12.5,0,0,0,5.46,5.47,2.27,2.27,0,0,0,.73-.07c3.12-1.6,6-3.69,9.67-4.16,6-.76,13.14,2.93,15.81,8.43,2.9,6,2.34,11.62-1.28,17.08a18.1,18.1,0,0,0-1,1.71,2.15,2.15,0,0,0-.15.71c.07,1.29,1,2,1.83,2.81,2.63,2.34,2.62,2.33,0,4.57C670.1,418.28,669.14,418.7,669.43,419.86Z"/><path class="cls-3" d="M645.13,386.15c-1.9-1.6-3.13-3.94-5.52-5-8.32,8.85-9.34,21.88-2.47,31.39a24.55,24.55,0,0,0,30.45,8.06c.61-.27,1.22-.5,1.84-.75,1.23-.95,2.46-1.92,3.7-2.86s1.07-1.8.12-2.87c-1.21-1.35-3-2.11-3.89-3.76-1.5-.45-2.51.59-3.59,1.28a15.07,15.07,0,0,1-15.79.79c-5.78-2.95-8.51-8-8.72-14.29a13.72,13.72,0,0,1,2.47-8.2C644.49,388.84,645.62,387.77,645.13,386.15Z"/><path class="cls-4" d="M678.83,419.88c-1.75,1.43-3.72,2.65-4.5,4.95,3.78,3.76,7.52,7.56,11.35,11.29,2.84,2.77,5.78,2.93,9.05.63.82-1.25.15-2.26-.65-3.1-4.09-4.31-8.25-8.55-12.62-12.57A3.47,3.47,0,0,0,678.83,419.88Z"/><path class="cls-5" d="M678.83,419.88l13.82,13.63a5.8,5.8,0,0,1,2.08,3.24c3-2.89,3.5-6.5.87-9.34-3.75-4-7.75-7.83-11.64-11.74a1.26,1.26,0,0,0-1.12-.31,5.21,5.21,0,0,0-4,4.08A3.25,3.25,0,0,1,678.83,419.88Z"/><path class="cls-6" d="M678.86,419.44l4-4.08c-.61-2.22-2.35-3.54-4-4.93a26.09,26.09,0,0,0-1.71,2.39c-.6,1.05-2.44,1.8-1.93,2.89A6.53,6.53,0,0,0,678.86,419.44Z"/><path class="cls-7" d="M669.33,410c4.81-4.69,5.93-10.37,4-16.59-2-6.46-6.38-10.54-13.09-11.75a15.71,15.71,0,0,0-14.74,4.56c-.42,1.35.5,2.19,1.28,3,6.3,6.49,12.64,12.94,19.13,19.25C666.85,409.33,667.73,410.52,669.33,410Z"/><path class="cls-8" d="M669.33,410a66,66,0,0,1-8.12-7.55c-3.28-3.3-6.57-6.59-9.81-9.93-2-2.05-3.91-4.2-5.86-6.3l-.41-.05c-2.2,2.91-4.21,5.87-4.66,9.67-.84,7.08,1.6,12.69,7.49,16.6s12.09,3.84,18.19.26a37.73,37.73,0,0,0,3.21-2.31A1.71,1.71,0,0,1,669.33,410Z"/><path class="cls-2" d="M335.73,419.86l4.9,5a10.44,10.44,0,0,0,4.84-4.87,2.06,2.06,0,0,0-.07-.7,3.93,3.93,0,0,0-.69-1c-2.06-2.51-2.06-2.51-.27-5.3a3.12,3.12,0,0,0,.7-2.52c2.76-5.94,3.87-12,2.13-18.53-4.54-17.17-25.75-24-39.36-12.57-.69.58-1.33,1.22-2,1.83a12.6,12.6,0,0,0,5.46,5.47,2.24,2.24,0,0,0,.73-.07c3.13-1.6,6-3.69,9.67-4.16,6.06-.76,13.15,2.93,15.81,8.43,2.91,6,2.35,11.62-1.27,17.08a16.24,16.24,0,0,0-1,1.71,2.43,2.43,0,0,0-.15.71c.07,1.29,1,2,1.84,2.81,2.63,2.34,2.61,2.33.05,4.57C336.4,418.28,335.45,418.7,335.73,419.86Z"/><path class="cls-3" d="M311.43,386.15c-1.89-1.6-3.13-3.94-5.52-5-8.31,8.85-9.33,21.88-2.46,31.39a24.55,24.55,0,0,0,30.45,8.06c.6-.27,1.22-.5,1.83-.75,1.23-.95,2.46-1.92,3.7-2.86s1.08-1.8.12-2.87c-1.2-1.35-3-2.11-3.88-3.76-1.51-.45-2.52.59-3.6,1.28a15,15,0,0,1-15.78.79c-5.78-2.95-8.52-8-8.73-14.29A13.72,13.72,0,0,1,310,390C310.79,388.84,311.93,387.77,311.43,386.15Z"/><path class="cls-4" d="M345.13,419.88c-1.74,1.43-3.71,2.65-4.5,4.95,3.78,3.76,7.53,7.56,11.35,11.29,2.85,2.77,5.78,2.93,9.06.63.81-1.25.14-2.26-.65-3.1-4.09-4.31-8.25-8.55-12.63-12.57A3.47,3.47,0,0,0,345.13,419.88Z"/><path class="cls-5" d="M345.13,419.88,359,433.51a5.82,5.82,0,0,1,2.09,3.24c3-2.89,3.5-6.5.86-9.34-3.74-4-7.75-7.83-11.63-11.74a1.29,1.29,0,0,0-1.13-.31,5.21,5.21,0,0,0-4,4.08A3.25,3.25,0,0,1,345.13,419.88Z"/><path class="cls-6" d="M345.16,419.44l4-4.08c-.62-2.22-2.36-3.54-4-4.93a28.28,28.28,0,0,0-1.72,2.39c-.6,1.05-2.43,1.8-1.93,2.89A6.56,6.56,0,0,0,345.16,419.44Z"/><path class="cls-7" d="M335.63,410c4.81-4.69,5.94-10.37,4.05-16.59-2-6.46-6.38-10.54-13.1-11.75a15.68,15.68,0,0,0-14.73,4.56c-.42,1.35.49,2.19,1.27,3,6.31,6.49,12.65,12.94,19.13,19.25C333.16,409.33,334,410.52,335.63,410Z"/><path class="cls-8" d="M335.63,410a67.43,67.43,0,0,1-8.12-7.55c-3.27-3.3-6.57-6.59-9.81-9.93-2-2.05-3.9-4.2-5.85-6.3l-.42-.05c-2.2,2.91-4.2,5.87-4.65,9.67-.85,7.08,1.59,12.69,7.48,16.6s12.09,3.84,18.2.26a39.39,39.39,0,0,0,3.21-2.31A1.72,1.72,0,0,1,335.63,410Z"/><path class="cls-2" d="M602.91,419.86l4.89,5a10.44,10.44,0,0,0,4.84-4.87,1.66,1.66,0,0,0-.07-.7,3.93,3.93,0,0,0-.69-1c-2.06-2.51-2.06-2.51-.27-5.3a3.08,3.08,0,0,0,.7-2.52c2.77-5.94,3.87-12,2.14-18.53-4.55-17.17-25.76-24-39.37-12.57-.69.58-1.33,1.22-2,1.83a12.5,12.5,0,0,0,5.46,5.47,2.27,2.27,0,0,0,.73-.07c3.12-1.6,6-3.69,9.67-4.16,6-.76,13.14,2.93,15.81,8.43,2.9,6,2.34,11.62-1.28,17.08a18.1,18.1,0,0,0-1,1.71,2.15,2.15,0,0,0-.15.71c.07,1.29,1,2,1.83,2.81,2.63,2.34,2.62,2.33.05,4.57C603.58,418.28,602.62,418.7,602.91,419.86Z"/><path class="cls-3" d="M578.61,386.15c-1.9-1.6-3.13-3.94-5.52-5-8.32,8.85-9.34,21.88-2.47,31.39a24.55,24.55,0,0,0,30.45,8.06c.6-.27,1.22-.5,1.84-.75,1.23-.95,2.46-1.92,3.7-2.86s1.07-1.8.12-2.87c-1.21-1.35-3-2.11-3.89-3.76-1.5-.45-2.51.59-3.6,1.28a15,15,0,0,1-15.78.79c-5.78-2.95-8.51-8-8.72-14.29a13.72,13.72,0,0,1,2.47-8.2C578,388.84,579.1,387.77,578.61,386.15Z"/><path class="cls-4" d="M612.31,419.88c-1.75,1.43-3.72,2.65-4.5,4.95,3.78,3.76,7.52,7.56,11.35,11.29,2.84,2.77,5.78,2.93,9.05.63.82-1.25.15-2.26-.65-3.1-4.09-4.31-8.25-8.55-12.62-12.57A3.47,3.47,0,0,0,612.31,419.88Z"/><path class="cls-5" d="M612.31,419.88l13.82,13.63a5.8,5.8,0,0,1,2.08,3.24c3-2.89,3.5-6.5.87-9.34-3.75-4-7.75-7.83-11.64-11.74a1.27,1.27,0,0,0-1.13-.31,5.18,5.18,0,0,0-4,4.08A3.25,3.25,0,0,1,612.31,419.88Z"/><path class="cls-6" d="M612.34,419.44l4-4.08c-.61-2.22-2.35-3.54-4-4.93a26.09,26.09,0,0,0-1.71,2.39c-.6,1.05-2.44,1.8-1.93,2.89A6.53,6.53,0,0,0,612.34,419.44Z"/><path class="cls-7" d="M602.81,410c4.81-4.69,5.93-10.37,4-16.59-2-6.46-6.38-10.54-13.09-11.75A15.71,15.71,0,0,0,579,386.2c-.42,1.35.5,2.19,1.28,3,6.3,6.49,12.64,12.94,19.13,19.25C600.33,409.33,601.21,410.52,602.81,410Z"/><path class="cls-8" d="M602.81,410a66,66,0,0,1-8.12-7.55c-3.28-3.3-6.58-6.59-9.82-9.93-2-2.05-3.9-4.2-5.85-6.3l-.41-.05c-2.2,2.91-4.21,5.87-4.66,9.67-.84,7.08,1.6,12.69,7.49,16.6s12.09,3.84,18.19.26a37.73,37.73,0,0,0,3.21-2.31A1.71,1.71,0,0,1,602.81,410Z"/><path class="cls-2" d="M536.39,419.86l4.89,5a10.44,10.44,0,0,0,4.84-4.87,1.66,1.66,0,0,0-.07-.7,3.93,3.93,0,0,0-.69-1c-2.06-2.51-2.06-2.51-.27-5.3a3.08,3.08,0,0,0,.7-2.52c2.77-5.94,3.87-12,2.14-18.53-4.55-17.17-25.76-24-39.37-12.57-.69.58-1.33,1.22-2,1.83a12.5,12.5,0,0,0,5.46,5.47,2.27,2.27,0,0,0,.73-.07c3.12-1.6,6-3.69,9.67-4.16,6.05-.76,13.14,2.93,15.81,8.43,2.9,6,2.34,11.62-1.28,17.08a18.1,18.1,0,0,0-1,1.71,2.15,2.15,0,0,0-.15.71c.07,1.29,1,2,1.83,2.81,2.63,2.34,2.62,2.33.05,4.57C537.06,418.28,536.1,418.7,536.39,419.86Z"/><path class="cls-3" d="M512.09,386.15c-1.9-1.6-3.13-3.94-5.52-5-8.32,8.85-9.34,21.88-2.47,31.39a24.55,24.55,0,0,0,30.45,8.06c.6-.27,1.22-.5,1.84-.75,1.23-.95,2.45-1.92,3.7-2.86s1.07-1.8.12-2.87c-1.21-1.35-3-2.11-3.89-3.76-1.5-.45-2.51.59-3.6,1.28a15,15,0,0,1-15.78.79c-5.78-2.95-8.51-8-8.72-14.29a13.72,13.72,0,0,1,2.47-8.2C511.44,388.84,512.58,387.77,512.09,386.15Z"/><path class="cls-4" d="M545.79,419.88c-1.75,1.43-3.72,2.65-4.5,4.95,3.78,3.76,7.52,7.56,11.35,11.29,2.84,2.77,5.78,2.93,9.05.63.82-1.25.15-2.26-.65-3.1-4.09-4.31-8.25-8.55-12.62-12.57A3.47,3.47,0,0,0,545.79,419.88Z"/><path class="cls-5" d="M545.79,419.88l13.82,13.63a5.8,5.8,0,0,1,2.08,3.24c3-2.89,3.5-6.5.87-9.34-3.75-4-7.75-7.83-11.64-11.74a1.27,1.27,0,0,0-1.13-.31,5.18,5.18,0,0,0-4,4.08A3.25,3.25,0,0,1,545.79,419.88Z"/><path class="cls-6" d="M545.82,419.44l4-4.08c-.61-2.22-2.35-3.54-4-4.93a26.09,26.09,0,0,0-1.71,2.39c-.6,1.05-2.44,1.8-1.93,2.89A6.53,6.53,0,0,0,545.82,419.44Z"/><path class="cls-7" d="M536.29,410c4.81-4.69,5.93-10.37,4-16.59-2-6.46-6.38-10.54-13.09-11.75a15.71,15.71,0,0,0-14.74,4.56c-.42,1.35.49,2.19,1.28,3,6.3,6.49,12.64,12.94,19.13,19.25C533.81,409.33,534.69,410.52,536.29,410Z"/><path class="cls-8" d="M536.29,410a66,66,0,0,1-8.12-7.55c-3.28-3.3-6.58-6.59-9.82-9.93-2-2.05-3.9-4.2-5.85-6.3l-.41-.05c-2.2,2.91-4.21,5.87-4.66,9.67-.84,7.08,1.6,12.69,7.49,16.6s12.09,3.84,18.19.26a37.73,37.73,0,0,0,3.21-2.31A1.71,1.71,0,0,1,536.29,410Z"/><path class="cls-2" d="M469.87,419.86l4.89,5A10.44,10.44,0,0,0,479.6,420a1.66,1.66,0,0,0-.07-.7,3.93,3.93,0,0,0-.69-1c-2.06-2.51-2.06-2.51-.27-5.3a3.08,3.08,0,0,0,.7-2.52c2.77-5.94,3.87-12,2.14-18.53-4.55-17.17-25.76-24-39.37-12.57-.69.58-1.33,1.22-2,1.83a12.5,12.5,0,0,0,5.46,5.47,2.27,2.27,0,0,0,.73-.07c3.12-1.6,6-3.69,9.67-4.16,6-.76,13.14,2.93,15.81,8.43,2.9,6,2.34,11.62-1.28,17.08a18.1,18.1,0,0,0-1,1.71,2.15,2.15,0,0,0-.15.71c.07,1.29,1,2,1.83,2.81,2.63,2.34,2.62,2.33.05,4.57C470.54,418.28,469.58,418.7,469.87,419.86Z"/><path class="cls-3" d="M445.57,386.15c-1.9-1.6-3.13-3.94-5.52-5-8.32,8.85-9.34,21.88-2.47,31.39A24.55,24.55,0,0,0,468,420.61c.6-.27,1.22-.5,1.83-.75,1.24-.95,2.46-1.92,3.71-2.86s1.07-1.8.12-2.87c-1.21-1.35-3-2.11-3.89-3.76-1.5-.45-2.51.59-3.6,1.28a15,15,0,0,1-15.78.79c-5.78-2.95-8.51-8-8.72-14.29a13.72,13.72,0,0,1,2.47-8.2C444.92,388.84,446.06,387.77,445.57,386.15Z"/><path class="cls-4" d="M479.27,419.88c-1.75,1.43-3.72,2.65-4.51,4.95,3.78,3.76,7.53,7.56,11.36,11.29,2.84,2.77,5.78,2.93,9.05.63.82-1.25.15-2.26-.65-3.1-4.09-4.31-8.25-8.55-12.62-12.57A3.49,3.49,0,0,0,479.27,419.88Z"/><path class="cls-5" d="M479.27,419.88l13.82,13.63a5.8,5.8,0,0,1,2.08,3.24c3-2.89,3.5-6.5.86-9.34-3.74-4-7.74-7.83-11.63-11.74a1.27,1.27,0,0,0-1.13-.31,5.18,5.18,0,0,0-4,4.08A3.25,3.25,0,0,1,479.27,419.88Z"/><path class="cls-6" d="M479.3,419.44l4-4.08c-.61-2.22-2.35-3.54-4-4.93a26.09,26.09,0,0,0-1.71,2.39c-.6,1.05-2.44,1.8-1.93,2.89A6.53,6.53,0,0,0,479.3,419.44Z"/><path class="cls-7" d="M469.77,410c4.81-4.69,5.93-10.37,4-16.59-2-6.46-6.38-10.54-13.09-11.75A15.71,15.71,0,0,0,446,386.2c-.42,1.35.49,2.19,1.28,3,6.3,6.49,12.64,12.94,19.13,19.25C467.29,409.33,468.17,410.52,469.77,410Z"/><path class="cls-8" d="M469.77,410a66,66,0,0,1-8.12-7.55c-3.28-3.3-6.58-6.59-9.82-9.93-2-2.05-3.9-4.2-5.85-6.3l-.41-.05c-2.2,2.91-4.21,5.87-4.66,9.67-.84,7.08,1.6,12.69,7.49,16.6s12.09,3.84,18.19.26a37.73,37.73,0,0,0,3.21-2.31A1.71,1.71,0,0,1,469.77,410Z"/><path class="cls-2" d="M403.35,419.86l4.89,5a10.44,10.44,0,0,0,4.84-4.87,1.66,1.66,0,0,0-.07-.7,3.93,3.93,0,0,0-.69-1c-2.06-2.51-2.06-2.51-.27-5.3a3.08,3.08,0,0,0,.7-2.52c2.77-5.94,3.87-12,2.14-18.53-4.55-17.17-25.76-24-39.37-12.57-.69.58-1.33,1.22-2,1.83a12.5,12.5,0,0,0,5.46,5.47,2.27,2.27,0,0,0,.73-.07c3.12-1.6,6-3.69,9.67-4.16,6.05-.76,13.14,2.93,15.81,8.43,2.9,6,2.34,11.62-1.28,17.08a18.1,18.1,0,0,0-1,1.71,2.15,2.15,0,0,0-.15.71c.06,1.29,1,2,1.83,2.81,2.63,2.34,2.62,2.33.05,4.57C404,418.28,403.06,418.7,403.35,419.86Z"/><path class="cls-3" d="M379.05,386.15c-1.9-1.6-3.13-3.94-5.52-5-8.32,8.85-9.34,21.88-2.47,31.39a24.55,24.55,0,0,0,30.45,8.06c.6-.27,1.22-.5,1.83-.75,1.24-.95,2.46-1.92,3.71-2.86s1.07-1.8.11-2.87c-1.2-1.35-3-2.11-3.88-3.76-1.5-.45-2.51.59-3.6,1.28a15,15,0,0,1-15.78.79c-5.78-2.95-8.51-8-8.72-14.29a13.72,13.72,0,0,1,2.47-8.2C378.4,388.84,379.54,387.77,379.05,386.15Z"/><path class="cls-4" d="M412.75,419.88c-1.75,1.43-3.72,2.65-4.51,4.95,3.78,3.76,7.53,7.56,11.36,11.29,2.84,2.77,5.78,2.93,9,.63.82-1.25.15-2.26-.65-3.1-4.09-4.31-8.25-8.55-12.62-12.57A3.49,3.49,0,0,0,412.75,419.88Z"/><path class="cls-5" d="M412.75,419.88l13.82,13.63a5.8,5.8,0,0,1,2.08,3.24c3-2.89,3.5-6.5.86-9.34-3.74-4-7.74-7.83-11.63-11.74a1.27,1.27,0,0,0-1.13-.31,5.18,5.18,0,0,0-4,4.08A3.25,3.25,0,0,1,412.75,419.88Z"/><path class="cls-6" d="M412.78,419.44l4-4.08c-.61-2.22-2.35-3.54-4-4.93a26.09,26.09,0,0,0-1.71,2.39c-.6,1.05-2.44,1.8-1.93,2.89A6.53,6.53,0,0,0,412.78,419.44Z"/><path class="cls-7" d="M403.25,410c4.81-4.69,5.93-10.37,4-16.59-2-6.46-6.38-10.54-13.09-11.75a15.71,15.71,0,0,0-14.74,4.56c-.42,1.35.49,2.19,1.28,3,6.3,6.49,12.64,12.94,19.13,19.25C400.77,409.33,401.65,410.52,403.25,410Z"/><path class="cls-8" d="M403.25,410a66,66,0,0,1-8.12-7.55c-3.28-3.3-6.58-6.59-9.82-9.93-2-2.05-3.9-4.2-5.85-6.3l-.41-.05c-2.2,2.91-4.21,5.87-4.66,9.67-.84,7.08,1.6,12.69,7.49,16.6s12.09,3.84,18.19.26a37.73,37.73,0,0,0,3.21-2.31A1.29,1.29,0,0,1,403.25,410Z"/><path class="cls-2" d="M935.15,529.49l4.9,5a10.39,10.39,0,0,0,4.84-4.87,2.06,2.06,0,0,0-.07-.7,4.11,4.11,0,0,0-.69-1c-2.06-2.5-2.06-2.51-.27-5.3a3.11,3.11,0,0,0,.7-2.52c2.76-5.94,3.87-12,2.13-18.53-4.54-17.16-25.75-24-39.36-12.57-.69.58-1.33,1.22-2,1.83a12.6,12.6,0,0,0,5.46,5.47,2.24,2.24,0,0,0,.73-.07c3.13-1.6,6-3.69,9.68-4.16,6-.76,13.14,2.93,15.8,8.43,2.91,6,2.35,11.63-1.27,17.08a17.32,17.32,0,0,0-1,1.71,2.5,2.5,0,0,0-.15.71c.07,1.29,1,2,1.84,2.81,2.63,2.34,2.61,2.33.05,4.57C935.82,527.9,934.87,528.33,935.15,529.49Z"/><path class="cls-3" d="M910.85,495.78c-1.89-1.61-3.13-3.94-5.52-5-8.31,8.85-9.33,21.88-2.46,31.4a24.56,24.56,0,0,0,30.45,8.05c.6-.27,1.22-.5,1.83-.74,1.23-1,2.46-1.93,3.7-2.87s1.08-1.8.12-2.87c-1.2-1.35-3-2.11-3.88-3.75-1.51-.45-2.52.58-3.6,1.27a15,15,0,0,1-15.78.79c-5.78-2.94-8.52-8-8.73-14.28a13.68,13.68,0,0,1,2.47-8.2C910.21,498.46,911.35,497.39,910.85,495.78Z"/><path class="cls-4" d="M944.55,529.5c-1.74,1.43-3.71,2.65-4.5,5,3.78,3.77,7.53,7.57,11.35,11.29,2.85,2.78,5.78,2.93,9.06.64.81-1.25.14-2.27-.65-3.1-4.09-4.31-8.25-8.56-12.63-12.58A3.51,3.51,0,0,0,944.55,529.5Z"/><path class="cls-5" d="M944.55,529.5l13.82,13.63a5.84,5.84,0,0,1,2.09,3.25c3-2.9,3.5-6.51.86-9.35-3.74-4-7.75-7.83-11.63-11.74a1.32,1.32,0,0,0-1.13-.31,5.22,5.22,0,0,0-4,4.08A3.15,3.15,0,0,1,944.55,529.5Z"/><path class="cls-6" d="M944.58,529.06l4-4.08c-.62-2.22-2.36-3.54-4-4.92a26.76,26.76,0,0,0-1.72,2.39c-.6,1-2.43,1.79-1.93,2.89A6.52,6.52,0,0,0,944.58,529.06Z"/><path class="cls-7" d="M935.05,519.6c4.81-4.68,5.94-10.36,4.05-16.59-2-6.45-6.38-10.54-13.1-11.75a15.68,15.68,0,0,0-14.73,4.56c-.42,1.36.49,2.2,1.27,3,6.31,6.49,12.65,12.94,19.13,19.25C932.58,519,933.46,520.14,935.05,519.6Z"/><path class="cls-8" d="M935.05,519.6a67.35,67.35,0,0,1-8.12-7.54c-3.27-3.31-6.57-6.59-9.81-9.93-2-2.06-3.9-4.21-5.85-6.31l-.42,0c-2.2,2.91-4.2,5.87-4.65,9.66-.85,7.09,1.59,12.7,7.48,16.61s12.09,3.84,18.2.25c1.13-.66,2.14-1.53,3.21-2.3A1.81,1.81,0,0,1,935.05,519.6Z"/><path class="cls-2" d="M868.81,529.49l4.9,5a10.44,10.44,0,0,0,4.84-4.87,1.84,1.84,0,0,0-.08-.7,3.82,3.82,0,0,0-.68-1c-2.06-2.5-2.07-2.51-.27-5.3a3.07,3.07,0,0,0,.69-2.52c2.77-5.94,3.87-12,2.14-18.53-4.55-17.16-25.75-24-39.36-12.57-.7.58-1.34,1.22-2,1.83a12.5,12.5,0,0,0,5.46,5.47,2.24,2.24,0,0,0,.73-.07c3.13-1.6,6-3.69,9.67-4.16,6.06-.76,13.15,2.93,15.81,8.43,2.9,6,2.35,11.63-1.27,17.08a17.32,17.32,0,0,0-1,1.71,2.5,2.5,0,0,0-.15.71c.07,1.29,1,2,1.84,2.81,2.62,2.34,2.61,2.33,0,4.57C869.48,527.9,868.52,528.33,868.81,529.49Z"/><path class="cls-3" d="M844.51,495.78c-1.89-1.61-3.13-3.94-5.52-5-8.31,8.85-9.34,21.88-2.47,31.4A24.57,24.57,0,0,0,867,530.23c.6-.27,1.22-.5,1.83-.74,1.23-1,2.46-1.93,3.7-2.87s1.07-1.8.12-2.87c-1.21-1.35-3-2.11-3.88-3.75-1.51-.45-2.52.58-3.6,1.27a15.07,15.07,0,0,1-15.79.79c-5.77-2.94-8.51-8-8.72-14.28a13.68,13.68,0,0,1,2.47-8.2C843.87,498.46,845,497.39,844.51,495.78Z"/><path class="cls-4" d="M878.21,529.5c-1.74,1.43-3.71,2.65-4.5,5,3.78,3.77,7.53,7.57,11.35,11.29,2.85,2.78,5.78,2.93,9.06.64.81-1.25.14-2.27-.65-3.1-4.09-4.31-8.25-8.56-12.63-12.58A3.51,3.51,0,0,0,878.21,529.5Z"/><path class="cls-5" d="M878.21,529.5,892,543.13a5.9,5.9,0,0,1,2.09,3.25c3-2.9,3.49-6.51.86-9.35-3.74-4-7.75-7.83-11.63-11.74a1.32,1.32,0,0,0-1.13-.31,5.22,5.22,0,0,0-4,4.08A3.15,3.15,0,0,1,878.21,529.5Z"/><path class="cls-6" d="M878.24,529.06l4-4.08c-.62-2.22-2.36-3.54-4-4.92a28.81,28.81,0,0,0-1.71,2.39c-.6,1-2.43,1.79-1.93,2.89A6.52,6.52,0,0,0,878.24,529.06Z"/><path class="cls-7" d="M868.71,519.6c4.81-4.68,5.94-10.36,4-16.59-2-6.45-6.38-10.54-13.09-11.75a15.68,15.68,0,0,0-14.73,4.56c-.43,1.36.49,2.2,1.27,3,6.3,6.49,12.65,12.94,19.13,19.25C866.24,519,867.11,520.14,868.71,519.6Z"/><path class="cls-8" d="M868.71,519.6a66.61,66.61,0,0,1-8.12-7.54c-3.27-3.31-6.57-6.59-9.81-9.93-2-2.06-3.91-4.21-5.85-6.31l-.42,0c-2.2,2.91-4.2,5.87-4.66,9.66-.84,7.09,1.6,12.7,7.49,16.61s12.09,3.84,18.2.25c1.13-.66,2.14-1.53,3.21-2.3A1.81,1.81,0,0,1,868.71,519.6Z"/><path class="cls-2" d="M802.29,529.49l4.9,5a10.44,10.44,0,0,0,4.84-4.87,1.84,1.84,0,0,0-.08-.7,3.82,3.82,0,0,0-.68-1c-2.06-2.5-2.07-2.51-.27-5.3a3.1,3.1,0,0,0,.69-2.52c2.77-5.94,3.87-12,2.14-18.53-4.55-17.16-25.75-24-39.36-12.57-.7.58-1.34,1.22-2,1.83a12.5,12.5,0,0,0,5.46,5.47,2.24,2.24,0,0,0,.73-.07c3.13-1.6,6-3.69,9.67-4.16,6.06-.76,13.15,2.93,15.81,8.43,2.9,6,2.35,11.63-1.27,17.08a17.32,17.32,0,0,0-1,1.71,2.5,2.5,0,0,0-.15.71c.07,1.29,1,2,1.84,2.81,2.62,2.34,2.61,2.33.05,4.57C803,527.9,802,528.33,802.29,529.49Z"/><path class="cls-3" d="M778,495.78c-1.89-1.61-3.13-3.94-5.52-5-8.31,8.85-9.34,21.88-2.47,31.4a24.57,24.57,0,0,0,30.46,8.05c.6-.27,1.22-.5,1.83-.74,1.23-1,2.46-1.93,3.7-2.87s1.07-1.8.12-2.87c-1.21-1.35-3-2.11-3.88-3.75-1.51-.45-2.52.58-3.6,1.27a15.07,15.07,0,0,1-15.79.79c-5.77-2.94-8.51-8-8.72-14.28a13.68,13.68,0,0,1,2.47-8.2C777.35,498.46,778.48,497.39,778,495.78Z"/><path class="cls-4" d="M811.69,529.5c-1.74,1.43-3.71,2.65-4.5,5,3.78,3.77,7.53,7.57,11.35,11.29,2.85,2.78,5.78,2.93,9.06.64.81-1.25.14-2.27-.65-3.1-4.09-4.31-8.25-8.56-12.63-12.58A3.51,3.51,0,0,0,811.69,529.5Z"/><path class="cls-5" d="M811.69,529.5l13.82,13.63a5.9,5.9,0,0,1,2.09,3.25c3-2.9,3.49-6.51.86-9.35-3.74-4-7.75-7.83-11.63-11.74a1.32,1.32,0,0,0-1.13-.31,5.22,5.22,0,0,0-4,4.08A3.15,3.15,0,0,1,811.69,529.5Z"/><path class="cls-6" d="M811.72,529.06l4-4.08c-.62-2.22-2.36-3.54-4-4.92a28.81,28.81,0,0,0-1.71,2.39c-.6,1-2.43,1.79-1.93,2.89A6.52,6.52,0,0,0,811.72,529.06Z"/><path class="cls-7" d="M802.19,519.6c4.81-4.68,5.94-10.36,4-16.59-2-6.45-6.38-10.54-13.09-11.75a15.68,15.68,0,0,0-14.73,4.56c-.43,1.36.49,2.2,1.27,3,6.3,6.49,12.65,12.94,19.13,19.25C799.72,519,800.59,520.14,802.19,519.6Z"/><path class="cls-8" d="M802.19,519.6a66.61,66.61,0,0,1-8.12-7.54c-3.27-3.31-6.57-6.59-9.81-9.93-2-2.06-3.91-4.21-5.85-6.31l-.42,0c-2.2,2.91-4.2,5.87-4.66,9.66-.84,7.09,1.6,12.7,7.49,16.61s12.09,3.84,18.2.25c1.13-.66,2.14-1.53,3.21-2.3A1.81,1.81,0,0,1,802.19,519.6Z"/><path class="cls-2" d="M735.77,529.49l4.9,5a10.48,10.48,0,0,0,4.84-4.87,1.84,1.84,0,0,0-.08-.7,3.82,3.82,0,0,0-.68-1c-2.07-2.5-2.07-2.51-.27-5.3a3.1,3.1,0,0,0,.69-2.52c2.77-5.94,3.87-12,2.14-18.53-4.55-17.16-25.75-24-39.37-12.57-.69.58-1.33,1.22-2,1.83a12.5,12.5,0,0,0,5.46,5.47,2.24,2.24,0,0,0,.73-.07c3.13-1.6,6-3.69,9.67-4.16,6.06-.76,13.15,2.93,15.81,8.43,2.9,6,2.35,11.63-1.27,17.08a17.32,17.32,0,0,0-1,1.71,2.5,2.5,0,0,0-.15.71c.07,1.29,1,2,1.84,2.81,2.62,2.34,2.61,2.33.05,4.57C736.44,527.9,735.48,528.33,735.77,529.49Z"/><path class="cls-3" d="M711.47,495.78c-1.89-1.61-3.13-3.94-5.52-5-8.31,8.85-9.34,21.88-2.47,31.4a24.57,24.57,0,0,0,30.46,8.05c.6-.27,1.22-.5,1.83-.74,1.23-1,2.46-1.93,3.7-2.87s1.07-1.8.12-2.87c-1.21-1.35-3-2.11-3.88-3.75-1.51-.45-2.52.58-3.6,1.27a15.07,15.07,0,0,1-15.79.79c-5.77-2.94-8.51-8-8.72-14.28a13.68,13.68,0,0,1,2.47-8.2C710.83,498.46,712,497.39,711.47,495.78Z"/><path class="cls-4" d="M745.17,529.5c-1.74,1.43-3.71,2.65-4.5,5,3.78,3.77,7.53,7.57,11.35,11.29,2.85,2.78,5.78,2.93,9.06.64.81-1.25.14-2.27-.65-3.1-4.09-4.31-8.25-8.56-12.63-12.58A3.51,3.51,0,0,0,745.17,529.5Z"/><path class="cls-5" d="M745.17,529.5,759,543.13a5.9,5.9,0,0,1,2.09,3.25c3-2.9,3.49-6.51.86-9.35-3.74-4-7.75-7.83-11.63-11.74a1.32,1.32,0,0,0-1.13-.31,5.22,5.22,0,0,0-4,4.08A3.15,3.15,0,0,1,745.17,529.5Z"/><path class="cls-6" d="M745.2,529.06l4-4.08c-.62-2.22-2.36-3.54-4-4.92a28.81,28.81,0,0,0-1.71,2.39c-.6,1-2.43,1.79-1.93,2.89A6.49,6.49,0,0,0,745.2,529.06Z"/><path class="cls-7" d="M735.67,519.6c4.81-4.68,5.94-10.36,4-16.59-2-6.45-6.38-10.54-13.09-11.75a15.68,15.68,0,0,0-14.73,4.56c-.43,1.36.49,2.2,1.27,3,6.3,6.49,12.65,12.94,19.13,19.25C733.19,519,734.07,520.14,735.67,519.6Z"/><path class="cls-8" d="M735.67,519.6a65.88,65.88,0,0,1-8.12-7.54c-3.28-3.31-6.57-6.59-9.81-9.93-2-2.06-3.91-4.21-5.85-6.31l-.42,0c-2.2,2.91-4.2,5.87-4.66,9.66-.84,7.09,1.6,12.7,7.49,16.61s12.09,3.84,18.19.25c1.14-.66,2.15-1.53,3.22-2.3A1.81,1.81,0,0,1,735.67,519.6Z"/><path class="cls-2" d="M402.07,529.49l4.9,5a10.39,10.39,0,0,0,4.84-4.87,1.66,1.66,0,0,0-.07-.7,4.11,4.11,0,0,0-.69-1c-2.06-2.5-2.06-2.51-.27-5.3a3.07,3.07,0,0,0,.7-2.52c2.76-5.94,3.87-12,2.13-18.53-4.54-17.16-25.75-24-39.36-12.57-.69.58-1.33,1.22-2,1.83a12.6,12.6,0,0,0,5.46,5.47,2.21,2.21,0,0,0,.73-.07c3.13-1.6,6-3.69,9.68-4.16,6.05-.76,13.14,2.93,15.81,8.43,2.9,6,2.34,11.63-1.28,17.08-.36.55-.69,1.13-1,1.71a2.19,2.19,0,0,0-.14.71c.06,1.29,1,2,1.83,2.81,2.63,2.34,2.62,2.33.05,4.57C402.74,527.9,401.79,528.33,402.07,529.49Z"/><path class="cls-3" d="M377.77,495.78c-1.89-1.61-3.12-3.94-5.52-5-8.31,8.85-9.33,21.88-2.46,31.4a24.56,24.56,0,0,0,30.45,8.05c.6-.27,1.22-.5,1.83-.74,1.24-1,2.46-1.93,3.71-2.87s1.07-1.8.11-2.87c-1.2-1.35-3-2.11-3.88-3.75-1.5-.45-2.51.58-3.6,1.27a15,15,0,0,1-15.78.79c-5.78-2.94-8.51-8-8.73-14.28a13.82,13.82,0,0,1,2.47-8.2C377.13,498.46,378.27,497.39,377.77,495.78Z"/><path class="cls-4" d="M411.48,529.5c-1.75,1.43-3.72,2.65-4.51,5,3.78,3.77,7.53,7.57,11.36,11.29,2.84,2.78,5.78,2.93,9.05.64.82-1.25.14-2.27-.65-3.1-4.09-4.31-8.25-8.56-12.62-12.58A3.54,3.54,0,0,0,411.48,529.5Z"/><path class="cls-5" d="M411.48,529.5l13.81,13.63a5.79,5.79,0,0,1,2.09,3.25c3-2.9,3.5-6.51.86-9.35-3.74-4-7.74-7.83-11.63-11.74a1.31,1.31,0,0,0-1.13-.31,5.2,5.2,0,0,0-4,4.08A3.15,3.15,0,0,1,411.48,529.5Z"/><path class="cls-6" d="M411.51,529.06l4-4.08c-.62-2.22-2.35-3.54-4-4.92a24.79,24.79,0,0,0-1.71,2.39c-.6,1-2.44,1.79-1.94,2.89A6.53,6.53,0,0,0,411.51,529.06Z"/><path class="cls-7" d="M402,519.6c4.81-4.68,5.94-10.36,4-16.59-2-6.45-6.38-10.54-13.1-11.75a15.69,15.69,0,0,0-14.73,4.56c-.42,1.36.49,2.2,1.28,3,6.3,6.49,12.64,12.94,19.13,19.25C399.5,519,400.38,520.14,402,519.6Z"/><path class="cls-8" d="M402,519.6a66.52,66.52,0,0,1-8.11-7.54c-3.28-3.31-6.58-6.59-9.82-9.93-2-2.06-3.9-4.21-5.85-6.31l-.42,0c-2.19,2.91-4.2,5.87-4.65,9.66-.84,7.09,1.6,12.7,7.49,16.61s12.09,3.84,18.19.25c1.13-.66,2.14-1.53,3.21-2.3A1.81,1.81,0,0,1,402,519.6Z"/><path class="cls-2" d="M335.73,529.49l4.9,5a10.39,10.39,0,0,0,4.84-4.87,2.06,2.06,0,0,0-.07-.7,4.11,4.11,0,0,0-.69-1c-2.06-2.5-2.06-2.51-.27-5.3a3.11,3.11,0,0,0,.7-2.52c2.76-5.94,3.87-12,2.13-18.53-4.54-17.16-25.75-24-39.36-12.57-.69.58-1.33,1.22-2,1.83a12.6,12.6,0,0,0,5.46,5.47,2.24,2.24,0,0,0,.73-.07c3.13-1.6,6-3.69,9.67-4.16,6.06-.76,13.15,2.93,15.81,8.43,2.91,6,2.35,11.63-1.27,17.08a17.32,17.32,0,0,0-1,1.71,2.5,2.5,0,0,0-.15.71c.07,1.29,1,2,1.84,2.81,2.63,2.34,2.61,2.33.05,4.57C336.4,527.9,335.45,528.33,335.73,529.49Z"/><path class="cls-3" d="M311.43,495.78c-1.89-1.61-3.13-3.94-5.52-5-8.31,8.85-9.33,21.88-2.46,31.4a24.56,24.56,0,0,0,30.45,8.05c.6-.27,1.22-.5,1.83-.74,1.23-1,2.46-1.93,3.7-2.87s1.08-1.8.12-2.87c-1.2-1.35-3-2.11-3.88-3.75-1.51-.45-2.52.58-3.6,1.27a15,15,0,0,1-15.78.79c-5.78-2.94-8.52-8-8.73-14.28a13.68,13.68,0,0,1,2.47-8.2C310.79,498.46,311.93,497.39,311.43,495.78Z"/><path class="cls-4" d="M345.13,529.5c-1.74,1.43-3.71,2.65-4.5,5,3.78,3.77,7.53,7.57,11.35,11.29,2.85,2.78,5.78,2.93,9.06.64.81-1.25.14-2.27-.65-3.1-4.09-4.31-8.25-8.56-12.63-12.58A3.51,3.51,0,0,0,345.13,529.5Z"/><path class="cls-5" d="M345.13,529.5,359,543.13a5.84,5.84,0,0,1,2.09,3.25c3-2.9,3.5-6.51.86-9.35-3.74-4-7.75-7.83-11.63-11.74a1.32,1.32,0,0,0-1.13-.31,5.22,5.22,0,0,0-4,4.08A3.15,3.15,0,0,1,345.13,529.5Z"/><path class="cls-6" d="M345.16,529.06l4-4.08c-.62-2.22-2.36-3.54-4-4.92a26.76,26.76,0,0,0-1.72,2.39c-.6,1-2.43,1.79-1.93,2.89A6.52,6.52,0,0,0,345.16,529.06Z"/><path class="cls-7" d="M335.63,519.6c4.81-4.68,5.94-10.36,4.05-16.59-2-6.45-6.38-10.54-13.1-11.75a15.68,15.68,0,0,0-14.73,4.56c-.42,1.36.49,2.2,1.27,3,6.31,6.49,12.65,12.94,19.13,19.25C333.16,519,334,520.14,335.63,519.6Z"/><path class="cls-8" d="M335.63,519.6a67.35,67.35,0,0,1-8.12-7.54c-3.27-3.31-6.57-6.59-9.81-9.93-2-2.06-3.9-4.21-5.85-6.31l-.42,0c-2.2,2.91-4.2,5.87-4.65,9.66-.85,7.09,1.59,12.7,7.48,16.61s12.09,3.84,18.2.25c1.13-.66,2.14-1.53,3.21-2.3A1.81,1.81,0,0,1,335.63,519.6Z"/><path class="cls-2" d="M669.25,529.49l4.9,5a10.48,10.48,0,0,0,4.84-4.87,1.84,1.84,0,0,0-.08-.7,3.82,3.82,0,0,0-.68-1c-2.07-2.5-2.07-2.51-.27-5.3a3.1,3.1,0,0,0,.69-2.52c2.77-5.94,3.87-12,2.14-18.53-4.55-17.16-25.75-24-39.37-12.57-.69.58-1.33,1.22-2,1.83a12.5,12.5,0,0,0,5.46,5.47,2.24,2.24,0,0,0,.73-.07c3.12-1.6,6-3.69,9.67-4.16,6.05-.76,13.15,2.93,15.81,8.43,2.9,6,2.35,11.63-1.27,17.08a17.32,17.32,0,0,0-1,1.71,2.5,2.5,0,0,0-.15.71c.07,1.29,1,2,1.84,2.81,2.62,2.34,2.61,2.33.05,4.57C669.92,527.9,669,528.33,669.25,529.49Z"/><path class="cls-3" d="M645,495.78c-1.89-1.61-3.13-3.94-5.52-5-8.31,8.85-9.34,21.88-2.47,31.4a24.57,24.57,0,0,0,30.46,8.05c.6-.27,1.22-.5,1.83-.74,1.23-1,2.46-1.93,3.7-2.87s1.07-1.8.12-2.87c-1.21-1.35-3-2.11-3.88-3.75-1.51-.45-2.52.58-3.6,1.27a15.07,15.07,0,0,1-15.79.79c-5.77-2.94-8.51-8-8.72-14.28a13.68,13.68,0,0,1,2.47-8.2C644.31,498.46,645.44,497.39,645,495.78Z"/><path class="cls-4" d="M678.65,529.5c-1.74,1.43-3.72,2.65-4.5,5,3.78,3.77,7.53,7.57,11.35,11.29,2.85,2.78,5.78,2.93,9.06.64.81-1.25.14-2.27-.65-3.1-4.09-4.31-8.25-8.56-12.63-12.58A3.51,3.51,0,0,0,678.65,529.5Z"/><path class="cls-5" d="M678.65,529.5l13.82,13.63a5.9,5.9,0,0,1,2.09,3.25c3-2.9,3.49-6.51.86-9.35-3.74-4-7.75-7.83-11.63-11.74a1.32,1.32,0,0,0-1.13-.31,5.22,5.22,0,0,0-4,4.08A3.15,3.15,0,0,1,678.65,529.5Z"/><path class="cls-6" d="M678.68,529.06l4-4.08c-.62-2.22-2.36-3.54-4-4.92a28.81,28.81,0,0,0-1.71,2.39c-.6,1-2.43,1.79-1.93,2.89A6.49,6.49,0,0,0,678.68,529.06Z"/><path class="cls-7" d="M669.15,519.6c4.81-4.68,5.93-10.36,4-16.59-2-6.45-6.38-10.54-13.09-11.75a15.68,15.68,0,0,0-14.73,4.56c-.43,1.36.49,2.2,1.27,3,6.3,6.49,12.65,12.94,19.13,19.25C666.67,519,667.55,520.14,669.15,519.6Z"/><path class="cls-8" d="M669.15,519.6a65.88,65.88,0,0,1-8.12-7.54c-3.28-3.31-6.57-6.59-9.81-9.93-2-2.06-3.91-4.21-5.85-6.31l-.42,0c-2.2,2.91-4.2,5.87-4.66,9.66-.84,7.09,1.6,12.7,7.49,16.61s12.09,3.84,18.19.25c1.14-.66,2.15-1.53,3.22-2.3A1.81,1.81,0,0,1,669.15,519.6Z"/><path class="cls-2" d="M602.73,529.49l4.9,5a10.48,10.48,0,0,0,4.84-4.87,1.84,1.84,0,0,0-.08-.7,3.82,3.82,0,0,0-.68-1c-2.07-2.5-2.07-2.51-.28-5.3a3.07,3.07,0,0,0,.7-2.52c2.77-5.94,3.87-12,2.14-18.53-4.55-17.16-25.75-24-39.37-12.57-.69.58-1.33,1.22-2,1.83a12.5,12.5,0,0,0,5.46,5.47,2.24,2.24,0,0,0,.73-.07c3.12-1.6,6-3.69,9.67-4.16,6.05-.76,13.15,2.93,15.81,8.43,2.9,6,2.35,11.63-1.27,17.08a17.32,17.32,0,0,0-1,1.71,2.5,2.5,0,0,0-.15.71c.07,1.29,1,2,1.83,2.81,2.63,2.34,2.62,2.33.06,4.57C603.4,527.9,602.44,528.33,602.73,529.49Z"/><path class="cls-3" d="M578.43,495.78c-1.89-1.61-3.13-3.94-5.52-5-8.31,8.85-9.34,21.88-2.47,31.4a24.57,24.57,0,0,0,30.46,8.05c.6-.27,1.22-.5,1.83-.74,1.23-1,2.46-1.93,3.7-2.87s1.07-1.8.12-2.87c-1.21-1.35-3-2.11-3.88-3.75-1.51-.45-2.52.58-3.6,1.27a15.07,15.07,0,0,1-15.79.79c-5.77-2.94-8.51-8-8.72-14.28a13.68,13.68,0,0,1,2.47-8.2C577.79,498.46,578.92,497.39,578.43,495.78Z"/><path class="cls-4" d="M612.13,529.5c-1.74,1.43-3.72,2.65-4.5,5,3.78,3.77,7.53,7.57,11.35,11.29,2.85,2.78,5.78,2.93,9.06.64.81-1.25.14-2.27-.66-3.1-4.08-4.31-8.24-8.56-12.62-12.58A3.51,3.51,0,0,0,612.13,529.5Z"/><path class="cls-5" d="M612.13,529.5,626,543.13a5.9,5.9,0,0,1,2.09,3.25c3-2.9,3.49-6.51.86-9.35-3.74-4-7.75-7.83-11.63-11.74a1.32,1.32,0,0,0-1.13-.31,5.22,5.22,0,0,0-4,4.08A3.15,3.15,0,0,1,612.13,529.5Z"/><path class="cls-6" d="M612.16,529.06l4-4.08c-.62-2.22-2.36-3.54-4-4.92a28.81,28.81,0,0,0-1.71,2.39c-.6,1-2.44,1.79-1.93,2.89A6.49,6.49,0,0,0,612.16,529.06Z"/><path class="cls-7" d="M602.63,519.6c4.81-4.68,5.93-10.36,4-16.59-2-6.45-6.38-10.54-13.09-11.75a15.68,15.68,0,0,0-14.73,4.56c-.43,1.36.49,2.2,1.27,3,6.3,6.49,12.65,12.94,19.13,19.25C600.15,519,601,520.14,602.63,519.6Z"/><path class="cls-8" d="M602.63,519.6a65.88,65.88,0,0,1-8.12-7.54c-3.28-3.31-6.57-6.59-9.81-9.93-2-2.06-3.91-4.21-5.85-6.31l-.42,0c-2.2,2.91-4.2,5.87-4.66,9.66-.84,7.09,1.6,12.7,7.49,16.61s12.09,3.84,18.19.25c1.14-.66,2.15-1.53,3.22-2.3A1.81,1.81,0,0,1,602.63,519.6Z"/><path class="cls-2" d="M536.21,529.49l4.9,5a10.48,10.48,0,0,0,4.84-4.87,1.84,1.84,0,0,0-.08-.7,3.82,3.82,0,0,0-.68-1c-2.07-2.5-2.07-2.51-.28-5.3a3.07,3.07,0,0,0,.7-2.52c2.77-5.94,3.87-12,2.14-18.53-4.55-17.16-25.75-24-39.37-12.57-.69.58-1.33,1.22-2,1.83a12.5,12.5,0,0,0,5.46,5.47,2.24,2.24,0,0,0,.73-.07c3.12-1.6,6-3.69,9.67-4.16,6-.76,13.15,2.93,15.81,8.43,2.9,6,2.35,11.63-1.27,17.08a17.32,17.32,0,0,0-1,1.71,2.5,2.5,0,0,0-.15.71c.07,1.29,1,2,1.83,2.81,2.63,2.34,2.62,2.33.06,4.57C536.88,527.9,535.92,528.33,536.21,529.49Z"/><path class="cls-3" d="M511.91,495.78c-1.89-1.61-3.13-3.94-5.52-5-8.31,8.85-9.34,21.88-2.47,31.4a24.57,24.57,0,0,0,30.46,8.05c.6-.27,1.22-.5,1.83-.74,1.23-1,2.46-1.93,3.7-2.87s1.07-1.8.12-2.87c-1.21-1.35-3-2.11-3.88-3.75-1.51-.45-2.52.58-3.6,1.27a15.07,15.07,0,0,1-15.79.79c-5.77-2.94-8.51-8-8.72-14.28a13.68,13.68,0,0,1,2.47-8.2C511.27,498.46,512.4,497.39,511.91,495.78Z"/><path class="cls-4" d="M545.61,529.5c-1.74,1.43-3.72,2.65-4.5,5,3.78,3.77,7.53,7.57,11.35,11.29,2.84,2.78,5.78,2.93,9.06.64.81-1.25.14-2.27-.66-3.1-4.08-4.31-8.24-8.56-12.62-12.58A3.51,3.51,0,0,0,545.61,529.5Z"/><path class="cls-5" d="M545.61,529.5l13.82,13.63a5.9,5.9,0,0,1,2.09,3.25c3-2.9,3.49-6.51.86-9.35-3.74-4-7.75-7.83-11.63-11.74a1.32,1.32,0,0,0-1.13-.31,5.22,5.22,0,0,0-4,4.08A3.15,3.15,0,0,1,545.61,529.5Z"/><path class="cls-6" d="M545.64,529.06l4-4.08c-.62-2.22-2.36-3.54-4-4.92a28.81,28.81,0,0,0-1.71,2.39c-.6,1-2.44,1.79-1.93,2.89A6.49,6.49,0,0,0,545.64,529.06Z"/><path class="cls-7" d="M536.11,519.6c4.81-4.68,5.93-10.36,4-16.59-2-6.45-6.38-10.54-13.09-11.75a15.68,15.68,0,0,0-14.73,4.56c-.43,1.36.49,2.2,1.27,3,6.3,6.49,12.65,12.94,19.13,19.25C533.63,519,534.51,520.14,536.11,519.6Z"/><path class="cls-8" d="M536.11,519.6a65.88,65.88,0,0,1-8.12-7.54c-3.28-3.31-6.57-6.59-9.81-9.93-2-2.06-3.91-4.21-5.85-6.31l-.42,0c-2.2,2.91-4.2,5.87-4.66,9.66-.84,7.09,1.6,12.7,7.49,16.61s12.09,3.84,18.19.25c1.14-.66,2.15-1.53,3.22-2.3A1.36,1.36,0,0,1,536.11,519.6Z"/><path class="cls-2" d="M469.69,529.49l4.9,5a10.42,10.42,0,0,0,4.83-4.87,1.66,1.66,0,0,0-.07-.7,3.82,3.82,0,0,0-.68-1c-2.07-2.5-2.07-2.51-.28-5.3a3.07,3.07,0,0,0,.7-2.52c2.77-5.94,3.87-12,2.14-18.53-4.55-17.16-25.76-24-39.37-12.57-.69.58-1.33,1.22-2,1.83a12.5,12.5,0,0,0,5.46,5.47,2.24,2.24,0,0,0,.73-.07c3.12-1.6,6-3.69,9.67-4.16,6-.76,13.14,2.93,15.81,8.43,2.9,6,2.35,11.63-1.27,17.08a17.32,17.32,0,0,0-1,1.71,2.2,2.2,0,0,0-.15.71c.07,1.29,1,2,1.83,2.81,2.63,2.34,2.62,2.33.06,4.57C470.36,527.9,469.4,528.33,469.69,529.49Z"/><path class="cls-3" d="M445.39,495.78c-1.89-1.61-3.13-3.94-5.52-5-8.31,8.85-9.34,21.88-2.47,31.4a24.57,24.57,0,0,0,30.46,8.05c.6-.27,1.22-.5,1.83-.74,1.23-1,2.46-1.93,3.7-2.87s1.07-1.8.12-2.87c-1.21-1.35-3-2.11-3.88-3.75-1.51-.45-2.52.58-3.6,1.27a15.07,15.07,0,0,1-15.79.79c-5.77-2.94-8.51-8-8.72-14.28a13.68,13.68,0,0,1,2.47-8.2C444.75,498.46,445.88,497.39,445.39,495.78Z"/><path class="cls-4" d="M479.09,529.5c-1.74,1.43-3.72,2.65-4.5,5,3.78,3.77,7.53,7.57,11.35,11.29,2.84,2.78,5.78,2.93,9.06.64.81-1.25.14-2.27-.66-3.1-4.08-4.31-8.24-8.56-12.62-12.58A3.51,3.51,0,0,0,479.09,529.5Z"/><path class="cls-5" d="M479.09,529.5l13.82,13.63a5.9,5.9,0,0,1,2.09,3.25c3-2.9,3.49-6.51.86-9.35-3.75-4-7.75-7.83-11.63-11.74a1.32,1.32,0,0,0-1.13-.31,5.22,5.22,0,0,0-4,4.08A3.15,3.15,0,0,1,479.09,529.5Z"/><path class="cls-6" d="M479.12,529.06l4-4.08c-.62-2.22-2.36-3.54-4-4.92a28.81,28.81,0,0,0-1.71,2.39c-.6,1-2.44,1.79-1.93,2.89A6.49,6.49,0,0,0,479.12,529.06Z"/><path class="cls-7" d="M469.59,519.6c4.81-4.68,5.93-10.36,4-16.59-2-6.45-6.38-10.54-13.09-11.75a15.68,15.68,0,0,0-14.73,4.56c-.43,1.36.49,2.2,1.27,3,6.3,6.49,12.65,12.94,19.13,19.25C467.11,519,468,520.14,469.59,519.6Z"/><path class="cls-8" d="M469.59,519.6a65.88,65.88,0,0,1-8.12-7.54c-3.28-3.31-6.57-6.59-9.81-9.93-2-2.06-3.91-4.21-5.85-6.31l-.42,0c-2.2,2.91-4.2,5.87-4.66,9.66-.84,7.09,1.6,12.7,7.49,16.61s12.09,3.84,18.19.25c1.14-.66,2.15-1.53,3.22-2.3A1.36,1.36,0,0,1,469.59,519.6Z"/></svg>